<svg width="51" height="51" viewBox="0 0 51 51" fill="none" xmlns="http://www.w3.org/2000/svg">
<g clip-path="url(#clip0_678_10089)">
<path d="M41.5356 0H8.81058C3.94463 0 0 3.94463 0 8.81058V41.5356C0 46.4015 3.94463 50.3462 8.81058 50.3462H41.5356C46.4015 50.3462 50.3462 46.4015 50.3462 41.5356V8.81058C50.3462 3.94463 46.4015 0 41.5356 0Z" fill="#385997"/>
<path d="M42.7944 23.2849H34.9279V17.3063C34.9279 15.8431 36.6113 15.733 37.1305 15.733H42.4798V7.55176H37.1305C31.207 7.55176 26.7466 11.7446 26.7466 17.3063V23.2849H20.1387V31.4662H26.7466V50.346H34.9279V31.4662H41.5358L42.7944 23.2849Z" fill="white"/>
</g>
<defs>
<clipPath id="clip0_678_10089">
<rect width="50.3462" height="50.3462" fill="white"/>
</clipPath>
</defs>
</svg>
