<svg width="51" height="51" viewBox="0 0 51 51" fill="none" xmlns="http://www.w3.org/2000/svg">
<g clip-path="url(#clip0_678_10098)">
<path d="M9.11835 50.3457L41.8434 50.3457C46.7093 50.3457 50.6539 46.4011 50.6539 41.5351L50.6539 8.81013C50.6539 3.94418 46.7093 -0.000450134 41.8434 -0.000450134L9.11835 -0.000450134C4.25241 -0.000450134 0.307777 3.94418 0.307777 8.81013L0.307777 41.5351C0.307777 46.4011 4.25241 50.3457 9.11835 50.3457Z" fill="url(#paint0_radial_678_10098)"/>
<path d="M34.9209 44.0526H16.0411C13.5375 44.0526 11.1364 43.058 9.36608 41.2877C7.59576 39.5174 6.6012 37.1163 6.6012 34.6127V15.7329C6.6012 13.2293 7.59576 10.8282 9.36608 9.05785C11.1364 7.28753 13.5375 6.29297 16.0411 6.29297H34.9209C37.4245 6.29297 39.8256 7.28753 41.5959 9.05785C43.3663 10.8282 44.3608 13.2293 44.3608 15.7329V34.6127C44.3608 37.1163 43.3663 39.5174 41.5959 41.2877C39.8256 43.058 37.4245 44.0526 34.9209 44.0526ZM16.0411 10.0689C14.5396 10.071 13.1001 10.6684 12.0384 11.7302C10.9766 12.7919 10.3792 14.2313 10.3772 15.7329V34.6127C10.3792 36.1142 10.9766 37.5536 12.0384 38.6154C13.1001 39.6771 14.5396 40.2745 16.0411 40.2766H34.9209C36.4224 40.2745 37.8619 39.6771 38.9236 38.6154C39.9854 37.5536 40.5828 36.1142 40.5849 34.6127V15.7329C40.5828 14.2313 39.9854 12.7919 38.9236 11.7302C37.8619 10.6684 36.4224 10.071 34.9209 10.0689H16.0411Z" fill="white"/>
<path d="M25.4809 35.8717C23.3649 35.8717 21.2965 35.2443 19.5371 34.0687C17.7777 32.8931 16.4065 31.2222 15.5967 29.2673C14.787 27.3124 14.5751 25.1613 14.9879 23.086C15.4007 21.0107 16.4197 19.1044 17.9159 17.6081C19.4121 16.1119 21.3184 15.093 23.3937 14.6802C25.469 14.2674 27.6202 14.4792 29.5751 15.289C31.53 16.0987 33.2009 17.47 34.3764 19.2294C35.552 20.9887 36.1795 23.0572 36.1795 25.1732C36.1774 28.01 35.0495 30.73 33.0436 32.7359C31.0377 34.7418 28.3177 35.8696 25.4809 35.8717ZM25.4809 18.2506C24.1118 18.2506 22.7733 18.6566 21.6349 19.4172C20.4965 20.1779 19.6092 21.2591 19.0853 22.524C18.5613 23.7889 18.4242 25.1808 18.6913 26.5237C18.9584 27.8666 19.6178 29.1 20.5859 30.0682C21.554 31.0363 22.7875 31.6956 24.1304 31.9627C25.4732 32.2299 26.8651 32.0928 28.1301 31.5688C29.395 31.0449 30.4762 30.1576 31.2368 29.0192C31.9975 27.8807 32.4035 26.5423 32.4035 25.1732C32.4014 23.3378 31.6714 21.5782 30.3736 20.2805C29.0758 18.9827 27.3163 18.2527 25.4809 18.2506Z" fill="white"/>
<path d="M36.1796 16.9918C37.2223 16.9918 38.0676 16.1465 38.0676 15.1038C38.0676 14.0611 37.2223 13.2158 36.1796 13.2158C35.1369 13.2158 34.2916 14.0611 34.2916 15.1038C34.2916 16.1465 35.1369 16.9918 36.1796 16.9918Z" fill="white"/>
</g>
<defs>
<radialGradient id="paint0_radial_678_10098" cx="0" cy="0" r="1" gradientUnits="userSpaceOnUse" gradientTransform="translate(-0.705043 49.323) rotate(180) scale(116.264)">
<stop stop-color="#F9ED32"/>
<stop offset="0.36" stop-color="#EE2A7B"/>
<stop offset="0.44" stop-color="#D22A8A"/>
<stop offset="0.6" stop-color="#8B2AB2"/>
<stop offset="0.83" stop-color="#1B2AF0"/>
<stop offset="0.88" stop-color="#002AFF"/>
</radialGradient>
<clipPath id="clip0_678_10098">
<rect width="50.3462" height="50.3462" fill="white" transform="translate(0.307739)"/>
</clipPath>
</defs>
</svg>
