<svg width="52" height="51" viewBox="0 0 52 51" fill="none" xmlns="http://www.w3.org/2000/svg">
<g clip-path="url(#clip0_678_10133)">
<path d="M42.4974 0.652832H9.77237C4.90642 0.652832 0.961792 4.59746 0.961792 9.46341V42.1884C0.961792 47.0544 4.90642 50.999 9.77237 50.999H42.4974C47.3633 50.999 51.3079 47.0544 51.3079 42.1884V9.46341C51.3079 4.59746 47.3633 0.652832 42.4974 0.652832Z" fill="white"/>
<path d="M42.4974 1.49456C44.6102 1.49664 46.6359 2.33688 48.1299 3.83088C49.6239 5.32488 50.4641 7.35058 50.4662 9.46341V42.1884C50.4641 44.3012 49.6239 46.3269 48.1299 47.8209C46.6359 49.3149 44.6102 50.1552 42.4974 50.1573H9.77237C7.65954 50.1552 5.63384 49.3149 4.13984 47.8209C2.64584 46.3269 1.8056 44.3012 1.80352 42.1884V9.46341C1.8056 7.35058 2.64584 5.32488 4.13984 3.83088C5.63384 2.33688 7.65954 1.49664 9.77237 1.49456H42.4974ZM42.4974 0.652836H9.77237C8.61506 0.651801 7.4689 0.878987 6.39949 1.32139C5.33007 1.7638 4.35839 2.41274 3.54005 3.23109C2.7217 4.04943 2.07276 5.02111 1.63035 6.09053C1.18795 7.15994 0.960761 8.3061 0.961796 9.46341V42.1884C0.960761 43.3457 1.18795 44.4919 1.63035 45.5613C2.07276 46.6307 2.7217 47.6024 3.54005 48.4207C4.35839 49.2391 5.33007 49.888 6.39949 50.3304C7.4689 50.7728 8.61506 51 9.77237 50.999H42.4974C43.6547 51 44.8008 50.7728 45.8703 50.3304C46.9397 49.888 47.9114 49.2391 48.7297 48.4207C49.548 47.6024 50.197 46.6307 50.6394 45.5613C51.0818 44.4919 51.309 43.3457 51.3079 42.1884V9.46341C51.309 8.3061 51.0818 7.15994 50.6394 6.09053C50.197 5.02111 49.548 4.04943 48.7297 3.23109C47.9114 2.41274 46.9397 1.7638 45.8703 1.32139C44.8008 0.878987 43.6547 0.651801 42.4974 0.652836Z" fill="#808285"/>
<path d="M26.1348 47.2225C37.9521 47.2225 47.5319 37.6426 47.5319 25.8253C47.5319 14.008 37.9521 4.42822 26.1348 4.42822C14.3175 4.42822 4.73767 14.008 4.73767 25.8253C4.73767 37.6426 14.3175 47.2225 26.1348 47.2225Z" fill="#C31E31"/>
<path d="M30.7759 13.3416C25.3086 11.2884 18.8973 13.3416 15.1843 18.3841C13.3838 20.7408 12.4553 23.6485 12.5568 26.6125C12.7142 29.6569 13.8076 33.8655 17.324 34.5892L18.1893 32.0011C14.8067 27.706 15.0427 23.8277 17.7173 20.2484C20.0773 17.0625 24.9231 15.5836 29.9105 17.0074C34.3158 18.2661 35.6138 23.1512 35.5666 25.7629C35.4879 30.1603 33.718 34.0071 31.6333 34.7072C27.1336 36.2097 24.6399 33.4407 24.5534 33.2991L24.4275 33.1732C25.3479 29.1455 26.1346 25.1336 25.8199 24.2525C25.8199 24.2525 25.1906 20.4766 22.0439 22.3646C18.8973 24.2525 20.7853 28.0285 20.7853 28.0285L17.9533 42.8177L18.6298 45.8699C19.149 46.0587 19.6761 46.2318 20.2032 46.3812L22.0439 42.503C22.0439 42.503 22.8306 39.1597 23.6173 35.8951C23.5543 36.1468 25.8986 37.4684 26.1503 37.5864C27.1646 38.0355 28.2585 38.2773 29.3676 38.2975C30.4767 38.3178 31.5787 38.1161 32.6088 37.7044C36.2825 36.4772 39.2403 31.2617 39.3426 25.8337C39.4527 19.9731 36.3611 15.4184 30.7759 13.3416Z" fill="white"/>
</g>
<defs>
<clipPath id="clip0_678_10133">
<rect width="50.3462" height="50.3462" fill="white" transform="translate(0.961548 0.653809)"/>
</clipPath>
</defs>
</svg>
