<svg width="51" height="51" viewBox="0 0 51 51" fill="none" xmlns="http://www.w3.org/2000/svg">
<g clip-path="url(#clip0_678_10114)">
<path d="M41.5356 0.653809H8.81058C3.94463 0.653809 0 4.59844 0 9.46439V42.1894C0 47.0553 3.94463 51 8.81058 51H41.5356C46.4015 51 50.3462 47.0553 50.3462 42.1894V9.46439C50.3462 4.59844 46.4015 0.653809 41.5356 0.653809Z" fill="#FFFC40"/>
<path d="M25.1735 43.133C28.8944 43.133 29.8384 40.773 32.0411 39.9864C33.693 39.3964 36.0452 39.6874 37.1229 39.8762C37.2822 39.9041 37.4461 39.8687 37.5798 39.7776C37.7134 39.6866 37.8063 39.547 37.8387 39.3885L38.177 37.886C38.2092 37.7518 38.2842 37.6316 38.3906 37.5437C38.497 37.4557 38.6291 37.4047 38.767 37.3983C42.5823 37.2173 43.2431 36.1317 43.2903 35.4867C43.2931 35.3547 43.2543 35.2253 43.1795 35.1166C43.1047 35.0079 42.9976 34.9255 42.8733 34.8809C34.4325 31.8208 34.8573 28.2101 35.6833 26.503C35.8284 26.2194 36.0403 25.9753 36.3006 25.7917C36.561 25.608 36.8621 25.4904 37.1779 25.4489C40.4898 24.9376 40.12 21.3976 38.1298 22.4675C35.9744 23.6239 34.8258 22.7821 34.8258 22.7821V17.7003C34.8258 12.296 30.5071 8.52002 25.1735 8.52002C19.84 8.52002 15.5212 12.2645 15.5212 17.6689V22.7743C15.5212 22.7743 14.3727 23.616 12.2173 22.4596C10.227 21.3898 9.85729 24.9297 13.1691 25.441C13.485 25.4825 13.7861 25.6002 14.0464 25.7838C14.3068 25.9674 14.5187 26.2115 14.6638 26.4952C15.4898 28.2022 15.9146 31.813 7.47371 34.8731C7.34948 34.9176 7.24239 35 7.16757 35.1087C7.09275 35.2174 7.054 35.3469 7.05678 35.4788C7.10398 36.1239 7.76477 37.2095 11.5801 37.3904C11.718 37.3968 11.8501 37.4478 11.9565 37.5358C12.0629 37.6237 12.1378 37.7439 12.1701 37.8781L12.5083 39.3806C12.5407 39.5391 12.6336 39.6787 12.7673 39.7698C12.9009 39.8608 13.0649 39.8962 13.2242 39.8684C14.3019 39.6796 16.654 39.3885 18.306 39.9785C20.5086 40.773 21.4526 43.133 25.1735 43.133Z" fill="white"/>
<path d="M25.1731 43.5746C23.2985 43.5859 21.4869 42.8988 20.0913 41.6473C19.5086 41.1497 18.8499 40.7487 18.1404 40.4594C16.567 39.893 14.2071 40.2077 13.3024 40.365C13.0248 40.4123 12.7396 40.3513 12.5055 40.1948C12.2714 40.0382 12.1061 39.7979 12.0438 39.5233L11.7055 38.0208C11.6984 37.986 11.6798 37.9547 11.6527 37.9318C11.6255 37.909 11.5915 37.896 11.556 37.8949C7.57553 37.7061 6.65514 36.5104 6.58434 35.535C6.57844 35.3043 6.64618 35.0778 6.77773 34.8882C6.90928 34.6987 7.0978 34.556 7.31593 34.4808C11.1784 33.0806 13.6092 31.3342 14.3959 29.5327C14.5757 29.0869 14.6581 28.6079 14.6378 28.1276C14.6174 27.6473 14.4947 27.177 14.2779 26.748C14.1664 26.5337 14.0042 26.3499 13.8054 26.2128C13.6065 26.0757 13.3771 25.9893 13.1372 25.9613C12.5104 25.9165 11.9106 25.6883 11.4126 25.305C10.9146 24.9217 10.5405 24.4003 10.3367 23.8059C10.2313 23.5099 10.2169 23.1891 10.2954 22.8848C10.3739 22.5806 10.5417 22.3068 10.7772 22.0988C11.0294 21.9287 11.3266 21.8378 11.6308 21.8378C11.9349 21.8378 12.2321 21.9287 12.4843 22.0988C12.8611 22.3552 13.2891 22.5267 13.7386 22.6014C14.1882 22.6761 14.6487 22.6522 15.0881 22.5315V17.7014C15.0881 12.1948 19.4383 8.08057 25.2124 8.08057C30.9865 8.08057 35.3367 12.2105 35.3367 17.7014V22.5236C35.777 22.6401 36.2372 22.6611 36.6863 22.5851C37.1354 22.5091 37.563 22.3379 37.9406 22.0831C38.1927 21.913 38.4899 21.8221 38.7941 21.8221C39.0982 21.8221 39.3955 21.913 39.6476 22.0831C39.8831 22.2911 40.0509 22.5649 40.1294 22.8691C40.2079 23.1734 40.1936 23.4941 40.0881 23.7901C39.8844 24.3846 39.5102 24.906 39.0122 25.2892C38.5142 25.6725 37.9144 25.9008 37.2876 25.9456C37.0477 25.9736 36.8183 26.0599 36.6195 26.1971C36.4206 26.3342 36.2584 26.5179 36.147 26.7322C35.9301 27.1612 35.8074 27.6316 35.787 28.1119C35.7667 28.5921 35.8492 29.0712 36.029 29.517C36.8156 31.3499 39.1756 33.0648 43.1089 34.4651C43.331 34.5414 43.5224 34.6877 43.6543 34.882C43.7862 35.0764 43.8515 35.3082 43.8405 35.5428C43.7697 36.5104 42.8493 37.7061 38.8688 37.9028C38.8334 37.9039 38.7993 37.9169 38.7722 37.9397C38.745 37.9626 38.7264 37.9939 38.7193 38.0287L38.3811 39.5312C38.3187 39.8058 38.1535 40.0461 37.9194 40.2027C37.6853 40.3592 37.4001 40.4201 37.1224 40.3729C36.1942 40.2156 33.8499 39.9009 32.2845 40.4673C31.5749 40.7565 30.9163 41.1576 30.3336 41.6552C28.9167 42.9223 27.0736 43.6078 25.1731 43.5746ZM15.8512 39.2008C16.7371 39.1829 17.6199 39.3132 18.4629 39.5862C19.2604 39.9114 20.0033 40.3571 20.6655 40.9078C21.8999 42.0272 23.5067 42.6472 25.1731 42.6472C26.8395 42.6472 28.4462 42.0272 29.6806 40.9078C30.3428 40.3571 31.0857 39.9114 31.8833 39.5862C33.6215 39.1296 35.4421 39.0838 37.2011 39.4525C37.2417 39.4594 37.2834 39.4501 37.3173 39.4266C37.3511 39.403 37.3744 39.3671 37.382 39.3266L37.7596 37.8084C37.8131 37.572 37.9431 37.3598 38.1294 37.2048C38.3157 37.0498 38.548 36.9605 38.7901 36.9509C42.4796 36.7779 42.8336 35.7788 42.8572 35.472C42.8572 35.472 42.8572 35.3776 42.747 35.354C38.5699 33.8358 36.0132 31.995 35.1558 29.8474C34.9229 29.2793 34.815 28.6677 34.8395 28.0541C34.8639 27.4406 35.0201 26.8395 35.2974 26.2917C35.4799 25.9561 35.7387 25.668 36.053 25.4507C36.3673 25.2335 36.7282 25.0931 37.1067 25.0409C37.5513 25.0233 37.9809 24.8751 38.3418 24.6149C38.7027 24.3547 38.979 23.994 39.1363 23.5777C39.1822 23.4587 39.1954 23.3296 39.1747 23.2038C39.1539 23.0779 39.0999 22.9599 39.0183 22.8619C38.8845 22.7518 38.6407 22.7832 38.3496 22.9405C35.9896 24.2228 34.6051 23.2631 34.5422 23.2237L34.3534 23.0821V17.7329C34.3534 12.7848 30.4201 9.07962 25.1731 9.07962C19.9261 9.07962 15.9928 12.8084 15.9928 17.7329V23.0821L15.804 23.2237C15.741 23.2631 14.3801 24.2228 11.9966 22.9405C11.7055 22.7832 11.4616 22.7518 11.3279 22.8619C11.2462 22.9599 11.1922 23.0779 11.1715 23.2038C11.1507 23.3296 11.164 23.4587 11.2099 23.5777C11.3671 23.994 11.6434 24.3547 12.0044 24.6149C12.3653 24.8751 12.7949 25.0233 13.2395 25.0409C13.631 25.0938 14.0038 25.241 14.3258 25.4698C14.6478 25.6987 14.9094 26.0023 15.0881 26.3546C15.3654 26.9025 15.5216 27.5036 15.546 28.1171C15.5705 28.7306 15.4626 29.3422 15.2297 29.9103C14.3723 32.0265 11.8156 33.8436 7.63846 35.417C7.56766 35.417 7.52046 35.4956 7.52833 35.535C7.52833 35.8418 7.90593 36.8408 11.5954 37.0139C11.8375 37.0235 12.0698 37.1127 12.2561 37.2677C12.4424 37.4228 12.5724 37.6349 12.6259 37.8713L12.9641 39.3738C12.9718 39.4143 12.9951 39.4502 13.0289 39.4738C13.0627 39.4973 13.1044 39.5066 13.1451 39.4997C14.037 39.3238 14.9423 39.2238 15.8512 39.2008Z" fill="#231F20"/>
</g>
<defs>
<clipPath id="clip0_678_10114">
<rect width="50.3462" height="50.3462" fill="white" transform="translate(0 0.653809)"/>
</clipPath>
</defs>
</svg>
