<svg width="52" height="51" viewBox="0 0 52 51" fill="none" xmlns="http://www.w3.org/2000/svg">
<g clip-path="url(#clip0_678_10105)">
<path d="M42.9378 0H9.33172C4.70907 0 0.96167 3.7474 0.96167 8.37005V41.9761C0.96167 46.5988 4.70907 50.3462 9.33172 50.3462H42.9378C47.5604 50.3462 51.3078 46.5988 51.3078 41.9761V8.37005C51.3078 3.7474 47.5604 0 42.9378 0Z" fill="black"/>
<path d="M39.2514 21.8216V16.2098C31.9158 15.9001 31.6798 9.23412 31.6798 8.60775V8.56055H26.01V30.4169C26.0094 31.3613 25.7109 32.2816 25.1571 33.0466C24.6033 33.8117 23.8223 34.3826 22.9253 34.6782C22.0283 34.9738 21.0609 34.979 20.1607 34.693C19.2606 34.4071 18.4736 33.8446 17.9116 33.0855C17.3496 32.3264 17.0413 31.4094 17.0306 30.465C17.0198 29.5206 17.3072 28.5968 17.8517 27.8252C18.3963 27.0535 19.1704 26.4732 20.0638 26.1668C20.9572 25.8605 21.9244 25.8437 22.828 26.1188V20.3309C22.3936 20.2752 21.9561 20.2473 21.5182 20.2473C19.5068 20.2473 17.5406 20.8438 15.8683 21.9612C14.1959 23.0787 12.8925 24.6669 12.1227 26.5252C11.353 28.3834 11.1516 30.4282 11.544 32.4009C11.9364 34.3735 12.905 36.1856 14.3272 37.6078C15.7495 39.0301 17.5615 39.9986 19.5342 40.391C21.5069 40.7834 23.5516 40.582 25.4099 39.8123C27.2681 39.0426 28.8564 37.7391 29.9738 36.0668C31.0913 34.3944 31.6877 32.4282 31.6877 30.4169C31.6877 30.2743 31.6877 30.1327 31.6779 29.9921V19.2296C34.2886 21.6181 39.2514 21.8216 39.2514 21.8216Z" fill="#00F6EF"/>
<path d="M40.921 23.2064V17.5917C33.5844 17.2819 33.3494 10.616 33.3494 9.98958V9.94238H27.6795V31.7987C27.6791 32.7432 27.3809 33.6636 26.8272 34.4288C26.2735 35.194 25.4926 35.7651 24.5956 36.0608C23.6985 36.3566 22.7311 36.3619 21.8309 36.076C20.9307 35.7902 20.1435 35.2277 19.5814 34.4687C19.0193 33.7096 18.7109 32.7926 18.7001 31.8482C18.6893 30.9037 18.9766 29.9799 19.5212 29.2082C20.0657 28.4364 20.8398 27.8561 21.7332 27.5497C22.6266 27.2433 23.594 27.2265 24.4975 27.5016V21.7128C24.0621 21.6582 23.6236 21.6316 23.1848 21.6331C21.1734 21.6337 19.2073 22.2307 17.5353 23.3487C15.8632 24.4667 14.5602 26.0554 13.7911 27.9139C13.0219 29.7724 12.8212 31.8173 13.2142 33.7899C13.6073 35.7625 14.5765 37.5742 15.9992 38.996C17.422 40.4178 19.2344 41.3858 21.2072 41.7775C23.1801 42.1692 25.2248 41.9671 27.0828 41.1967C28.9408 40.4263 30.5287 39.1222 31.6455 37.4494C32.7623 35.7765 33.358 33.8101 33.3573 31.7987C33.3573 31.6561 33.3573 31.5145 33.3474 31.3739V20.6114C35.9581 22.9999 40.921 23.2064 40.921 23.2064Z" fill="white"/>
<path d="M31.8199 9.94238C32.0933 11.4311 32.8918 13.7587 35.2193 15.1206C33.4405 13.0487 33.351 10.375 33.351 9.98958V9.94238H31.8199Z" fill="#FF004F"/>
<path d="M40.9209 23.206V17.5912C40.3593 17.5706 39.8003 17.5048 39.2493 17.3945V21.8146C39.2493 21.8146 34.2864 21.611 31.6777 19.2225V29.9821C31.6836 30.1227 31.6875 30.2643 31.6875 30.4068C31.6873 32.2468 31.1879 34.0521 30.2426 35.6307C29.2974 37.2092 27.9416 38.5017 26.3197 39.3706C24.6979 40.2394 22.8707 40.652 21.0329 40.5645C19.1951 40.4769 17.4154 39.8924 15.8835 38.8733C17.2923 40.3282 19.1035 41.3293 21.0849 41.7483C23.0663 42.1673 25.1277 41.9851 27.0049 41.225C28.8821 40.4649 30.4896 39.1616 31.6213 37.4822C32.753 35.8027 33.3575 33.8235 33.3572 31.7983C33.3572 31.6557 33.3572 31.5141 33.3474 31.3735V20.611C35.9581 22.9995 40.9209 23.206 40.9209 23.206Z" fill="#FF004F"/>
<path d="M22.828 26.1099C21.7453 25.7798 20.578 25.8704 19.5593 26.3637C18.5406 26.857 17.7456 27.7166 17.3332 28.7707C16.9209 29.8248 16.9217 30.9956 17.3353 32.0492C17.7489 33.1028 18.545 33.9614 19.5643 34.4534C19.0073 33.6926 18.7038 32.7757 18.6968 31.8327C18.6898 30.8897 18.9797 29.9685 19.5255 29.1994C20.0712 28.4304 20.8451 27.8526 21.7375 27.5478C22.6299 27.243 23.5955 27.2268 24.4977 27.5013V21.7125C24.0622 21.658 23.6238 21.6314 23.1849 21.6329C23.064 21.6329 22.945 21.6329 22.825 21.6398L22.828 26.1099Z" fill="#FF004F"/>
</g>
<defs>
<clipPath id="clip0_678_10105">
<rect width="50.3462" height="50.3462" fill="white" transform="translate(0.961548)"/>
</clipPath>
</defs>
</svg>
