<svg width="51" height="51" viewBox="0 0 51 51" fill="none" xmlns="http://www.w3.org/2000/svg">
<g clip-path="url(#clip0_678_10093)">
<path d="M9.46449 50.3457L42.1895 50.3457C47.0554 50.3457 51.0001 46.4011 51.0001 41.5351L51.0001 8.81013C51.0001 3.94418 47.0554 -0.000450134 42.1895 -0.000450134L9.46449 -0.000450134C4.59854 -0.000450134 0.653908 3.94418 0.653908 8.81013L0.653908 41.5351C0.653908 46.4011 4.59854 50.3457 9.46449 50.3457Z" fill="#00AADE"/>
<path d="M37.7842 16.3617C38.5352 15.9756 39.2008 15.4424 39.7414 14.7937C40.282 14.1449 40.6865 13.3941 40.9308 12.5858C39.6722 13.8444 36.9975 14.2614 36.9975 14.2614C36.0727 13.125 34.7804 12.3469 33.3434 12.0612C31.9064 11.7756 30.4147 12.0002 29.1256 12.6965C27.8365 13.3928 26.8307 14.5171 26.2817 15.8755C25.7326 17.2338 25.6748 18.7412 26.118 20.1377H25.827C23.2635 19.9677 20.7638 19.2641 18.488 18.072C16.2122 16.88 14.2105 15.2256 12.6111 13.2151C12.6111 13.2151 8.83516 18.2497 14.4991 22.0257C14.4991 22.0257 11.9818 22.0257 11.3525 21.3963C11.3525 21.3963 10.7231 25.1723 16.3871 27.6896C15.9919 27.8696 15.5627 27.9628 15.1284 27.9628C14.6942 27.9628 14.265 27.8696 13.8698 27.6896C13.8698 30.1204 16.4028 32.0949 19.5337 32.0949C19.5337 33.8334 15.3094 35.2415 10.0938 35.2415C18.2751 40.9055 37.7842 39.6468 39.0428 18.2497L42.1895 15.1031L37.7842 16.3617Z" fill="white"/>
</g>
<defs>
<clipPath id="clip0_678_10093">
<rect width="50.3462" height="50.3462" fill="white" transform="translate(0.65387)"/>
</clipPath>
</defs>
</svg>
