<svg width="51" height="51" viewBox="0 0 51 51" fill="none" xmlns="http://www.w3.org/2000/svg">
<g clip-path="url(#clip0_678_10127)">
<path d="M41.8436 0.653809H9.11856C4.25261 0.653809 0.307983 4.59844 0.307983 9.46439V42.1894C0.307983 47.0553 4.25261 51 9.11856 51H41.8436C46.7095 51 50.6541 47.0553 50.6541 42.1894V9.46439C50.6541 4.59844 46.7095 0.653809 41.8436 0.653809Z" fill="url(#paint0_linear_678_10127)"/>
<path d="M21.8778 17.4732L23.4511 21.7447C23.4892 21.8403 23.502 21.9442 23.4882 22.0461C23.4744 22.1481 23.4345 22.2448 23.3724 22.3269C23.0348 22.8166 22.6444 23.2677 22.2082 23.6721C22.0813 23.7716 21.9976 23.9161 21.9741 24.0757C21.9507 24.2352 21.9894 24.3977 22.0823 24.5295C23.0499 25.8275 25.5593 28.9741 28.824 30.0991C28.9498 30.1406 29.0855 30.1409 29.2115 30.0998C29.3374 30.0588 29.4469 29.9786 29.5241 29.8709L30.83 28.1324C30.9191 28.0148 31.0467 27.9323 31.1905 27.8992C31.3342 27.8661 31.4851 27.8846 31.6166 27.9515L35.7072 29.9968C35.8495 30.0638 35.961 30.1822 36.0194 30.3282C36.0778 30.4742 36.0787 30.6368 36.0219 30.7834C35.5735 32.0578 34.1654 35.1651 31.1525 34.6617C27.2126 34.0572 23.6291 32.0346 21.0754 28.9741C18.6053 25.8904 13.728 17.9609 21.2249 17.0641C21.3636 17.0503 21.5031 17.083 21.6212 17.1571C21.7394 17.2311 21.8297 17.3423 21.8778 17.4732Z" fill="white"/>
<path d="M26.7396 43.7627C23.4485 43.7673 20.2125 42.919 17.3469 41.3005L7.90698 43.7234L11.3761 35.9276C9.27911 32.9783 8.15938 29.4458 8.17445 25.8269C8.17445 15.9386 16.5052 7.89111 26.7396 7.89111C36.974 7.89111 45.3047 15.9386 45.3047 25.8269C45.3047 35.7152 36.974 43.7627 26.7396 43.7627ZM17.8425 37.9179L18.4167 38.2719C20.9182 39.8158 23.8 40.6329 26.7396 40.6318C35.2434 40.6318 42.1581 34.0003 42.1581 25.8427C42.1581 17.685 35.2434 11.0377 26.7396 11.0377C18.2358 11.0377 11.3211 17.6693 11.3211 25.8269C11.3246 29.0719 12.4345 32.2186 14.4677 34.7476L15.0577 35.495L12.2179 40.3093L17.8425 37.9179Z" fill="white"/>
</g>
<defs>
<linearGradient id="paint0_linear_678_10127" x1="25.4811" y1="3.80044" x2="25.4811" y2="51.6372" gradientUnits="userSpaceOnUse">
<stop stop-color="#1DF47C"/>
<stop offset="0.31" stop-color="#12DF63"/>
<stop offset="0.75" stop-color="#05C443"/>
<stop offset="1" stop-color="#00BA37"/>
</linearGradient>
<clipPath id="clip0_678_10127">
<rect width="50.3462" height="50.3462" fill="white" transform="translate(0.307739 0.653809)"/>
</clipPath>
</defs>
</svg>
