<svg width="51" height="51" viewBox="0 0 51 51" fill="none" xmlns="http://www.w3.org/2000/svg">
<g clip-path="url(#clip0_678_10120)">
<path d="M42.1895 0.652832H9.46451C4.59856 0.652832 0.653931 4.59746 0.653931 9.46341V42.1884C0.653931 47.0544 4.59856 50.999 9.46451 50.999H42.1895C47.0555 50.999 51.0001 47.0544 51.0001 42.1884V9.46341C51.0001 4.59746 47.0555 0.652832 42.1895 0.652832Z" fill="white"/>
<path d="M42.1895 1.49456C44.3023 1.49664 46.328 2.33688 47.822 3.83088C49.316 5.32488 50.1563 7.35058 50.1584 9.46341V42.1884C50.1563 44.3012 49.316 46.3269 47.822 47.8209C46.328 49.3149 44.3023 50.1552 42.1895 50.1573H9.46451C7.35168 50.1552 5.32598 49.3149 3.83198 47.8209C2.33798 46.3269 1.49774 44.3012 1.49566 42.1884V9.46341C1.49774 7.35058 2.33798 5.32488 3.83198 3.83088C5.32598 2.33688 7.35168 1.49664 9.46451 1.49456H42.1895ZM42.1895 0.652836H9.46451C8.3072 0.651801 7.16104 0.878987 6.09162 1.32139C5.02221 1.7638 4.05053 2.41274 3.23218 3.23109C2.41384 4.04943 1.7649 5.02111 1.32249 6.09053C0.880086 7.15994 0.652899 8.3061 0.653934 9.46341V42.1884C0.652899 43.3457 0.880086 44.4919 1.32249 45.5613C1.7649 46.6307 2.41384 47.6024 3.23218 48.4207C4.05053 49.2391 5.02221 49.888 6.09162 50.3304C7.16104 50.7728 8.3072 51 9.46451 50.999H42.1895C43.3468 51 44.493 50.7728 45.5624 50.3304C46.6318 49.888 47.6035 49.2391 48.4218 48.4207C49.2402 47.6024 49.8891 46.6307 50.3315 45.5613C50.7739 44.4919 51.0011 43.3457 51.0001 42.1884V9.46341C51.0011 8.3061 50.7739 7.15994 50.3315 6.09053C49.8891 5.02111 49.2402 4.04943 48.4218 3.23109C47.6035 2.41274 46.6318 1.7638 45.5624 1.32139C44.493 0.878987 43.3468 0.651801 42.1895 0.652836Z" fill="#808285"/>
<path d="M39.043 12.2954H12.6113C9.13559 12.2954 6.31799 15.113 6.31799 18.5887V33.0632C6.31799 36.5389 9.13559 39.3565 12.6113 39.3565H39.043C42.5187 39.3565 45.3363 36.5389 45.3363 33.0632V18.5887C45.3363 15.113 42.5187 12.2954 39.043 12.2954Z" fill="#FF0100"/>
<path d="M20.7926 31.9381V19.7134L30.8618 25.8257L20.7926 31.9381Z" fill="white"/>
</g>
<defs>
<clipPath id="clip0_678_10120">
<rect width="50.3462" height="50.3462" fill="white" transform="translate(0.65387 0.653809)"/>
</clipPath>
</defs>
</svg>
