<svg width="53" height="53" viewBox="0 0 53 53" fill="none" xmlns="http://www.w3.org/2000/svg">
<path d="M52.5 7.5H45V0H41.25V7.5H33.75V11.25H41.25V18.75H45V11.25H52.5V7.5ZM41.25 24.375V38.5425C40.1151 37.8673 38.8205 37.5074 37.5 37.5C36.0166 37.5 34.5666 37.9399 33.3332 38.764C32.0999 39.5881 31.1386 40.7594 30.5709 42.1299C30.0032 43.5003 29.8547 45.0083 30.1441 46.4632C30.4335 47.918 31.1478 49.2544 32.1967 50.3033C33.2456 51.3522 34.582 52.0665 36.0368 52.3559C37.4917 52.6453 38.9997 52.4968 40.3701 51.9291C41.7406 51.3614 42.9119 50.4001 43.736 49.1668C44.5601 47.9334 45 46.4834 45 45V24.375H41.25ZM37.5 48.75C36.7583 48.75 36.0333 48.5301 35.4166 48.118C34.7999 47.706 34.3193 47.1203 34.0355 46.4351C33.7516 45.7498 33.6774 44.9958 33.8221 44.2684C33.9668 43.541 34.3239 42.8728 34.8484 42.3484C35.3728 41.8239 36.041 41.4667 36.7684 41.3221C37.4958 41.1774 38.2498 41.2516 38.9351 41.5355C39.6203 41.8193 40.206 42.2999 40.618 42.9166C41.0301 43.5333 41.25 44.2583 41.25 45C41.2485 45.9941 40.853 46.9471 40.15 47.65C39.4471 48.3529 38.4941 48.7485 37.5 48.75V48.75ZM28.125 7.5H15C14.0057 7.50099 13.0525 7.8964 12.3494 8.59945C11.6464 9.30249 11.251 10.2557 11.25 11.25V38.5425C10.1151 37.8674 8.82052 37.5075 7.5 37.5C6.01664 37.5 4.56659 37.9399 3.33323 38.764C2.09986 39.5881 1.13856 40.7594 0.570907 42.1299C0.00324961 43.5003 -0.145275 45.0083 0.144114 46.4632C0.433503 47.918 1.14781 49.2544 2.1967 50.3033C3.2456 51.3522 4.58197 52.0665 6.03683 52.3559C7.49168 52.6453 8.99968 52.4968 10.3701 51.9291C11.7406 51.3614 12.9119 50.4001 13.736 49.1668C14.5601 47.9334 15 46.4834 15 45V11.25H28.125V7.5ZM7.5 48.75C6.75832 48.75 6.0333 48.5301 5.41662 48.118C4.79993 47.706 4.31928 47.1203 4.03545 46.4351C3.75163 45.7498 3.67736 44.9958 3.82206 44.2684C3.96675 43.541 4.32391 42.8728 4.84835 42.3484C5.3728 41.8239 6.04099 41.4667 6.76841 41.3221C7.49584 41.1774 8.24984 41.2516 8.93507 41.5355C9.62029 41.8193 10.206 42.2999 10.618 42.9166C11.0301 43.5333 11.25 44.2583 11.25 45C11.249 45.9943 10.8536 46.9475 10.1506 47.6506C9.44751 48.3536 8.49426 48.749 7.5 48.75V48.75Z" fill="#1F222A" fill-opacity="0.4"/>
</svg>
