<svg width="16" height="16" viewBox="0 0 16 16" fill="none" xmlns="http://www.w3.org/2000/svg">
<path d="M7.21533 12.4011C8.08117 12.4011 8.80872 12.1065 9.39797 11.5173C9.98722 10.928 10.2818 10.1945 10.2818 9.31659C10.2818 8.45075 9.98722 7.72621 9.39797 7.14297C8.80872 6.55973 8.08117 6.26811 7.21533 6.26811C6.33747 6.26811 5.60691 6.55973 5.02368 7.14297C4.44044 7.72621 4.14882 8.45075 4.14882 9.31659C4.14882 10.1945 4.44044 10.928 5.02368 11.5173C5.60691 12.1065 6.33747 12.4011 7.21533 12.4011ZM1.0823 15.0347C0.793687 15.0347 0.54115 14.9265 0.32469 14.7101C0.10823 14.4936 0 14.2411 0 13.9524V4.69878C0 4.42219 0.10823 4.17266 0.32469 3.95019C0.54115 3.72771 0.793687 3.61648 1.0823 3.61648H3.73393L4.72604 2.42595C4.82225 2.29367 4.9425 2.19746 5.08681 2.13734C5.23112 2.07721 5.38745 2.04714 5.55581 2.04714H9.56032C9.71665 2.04714 9.84592 2.09825 9.94814 2.20047C10.0504 2.30269 10.1015 2.43196 10.1015 2.58829V4.69878H1.0823V13.9524H13.3484V6.86338H13.8895C13.9617 6.86338 14.0308 6.87841 14.097 6.90847C14.1631 6.93854 14.2202 6.97762 14.2683 7.02572C14.3164 7.07383 14.3555 7.13095 14.3856 7.19709C14.4156 7.26323 14.4307 7.33237 14.4307 7.40453V13.9524C14.4307 14.2411 14.3194 14.4936 14.097 14.7101C13.8745 14.9265 13.625 15.0347 13.3484 15.0347H1.0823ZM13.3484 3.61648H12.3382C12.1819 3.61648 12.0526 3.56537 11.9504 3.46315C11.8482 3.36094 11.7971 3.23166 11.7971 3.07533C11.7971 2.919 11.8482 2.78972 11.9504 2.6875C12.0526 2.58529 12.1819 2.53418 12.3382 2.53418H13.3484V1.50599C13.3484 1.34966 13.3995 1.22039 13.5017 1.11817C13.6039 1.01595 13.7332 0.964844 13.8895 0.964844C14.0458 0.964844 14.1751 1.01595 14.2773 1.11817C14.3796 1.22039 14.4307 1.34966 14.4307 1.50599V2.53418H15.4588C15.6152 2.53418 15.7445 2.58529 15.8467 2.6875C15.9489 2.78972 16 2.919 16 3.07533C16 3.23166 15.9489 3.36094 15.8467 3.46315C15.7445 3.56537 15.6152 3.61648 15.4588 3.61648H14.4307V4.62663C14.4307 4.78296 14.3796 4.91223 14.2773 5.01445C14.1751 5.11667 14.0458 5.16778 13.8895 5.16778C13.7332 5.16778 13.6039 5.11667 13.5017 5.01445C13.3995 4.91223 13.3484 4.78296 13.3484 4.62663V3.61648ZM1.0823 4.69878V13.9524V4.69878Z" fill="black"/>
</svg>
