<svg width="60" height="60" viewBox="0 0 60 60" fill="none" xmlns="http://www.w3.org/2000/svg">
<path d="M35.875 8.75V11.5625H11.875C11.6667 11.5625 11.4896 11.6354 11.3437 11.7813C11.1979 11.9271 11.125 12.125 11.125 12.375V47.625C11.125 47.875 11.1979 48.0729 11.3437 48.2188C11.4896 48.3646 11.6667 48.4375 11.875 48.4375H47.1875C47.3958 48.4375 47.5729 48.3646 47.7187 48.2188C47.8646 48.0729 47.9375 47.875 47.9375 47.625V23.75H50.75V47.625C50.75 48.625 50.3958 49.4792 49.6875 50.1875C48.9792 50.8958 48.1458 51.25 47.1875 51.25H11.875C10.875 51.25 10.0208 50.8958 9.3125 50.1875C8.60417 49.4792 8.25 48.625 8.25 47.625V12.375C8.25 11.375 8.60417 10.5208 9.3125 9.8125C10.0208 9.10417 10.875 8.75 11.875 8.75H35.875ZM46.75 7.8125V12.8125H51.75V15.6875H46.75V20.75H43.875V15.6875H38.875V12.8125H43.875V7.8125H46.75ZM16.375 41.75H42.8125L34.875 31.1875L27.5625 40.625L22.375 34.0625L16.375 41.75ZM11.125 11.5625V48.4375V11.5625Z" fill="#1F222A" fill-opacity="0.4"/>
</svg>
