<svg width="31" height="30" viewBox="0 0 31 30" fill="none" xmlns="http://www.w3.org/2000/svg">
<g clip-path="url(#clip0_641_8635)">
<path d="M6.9944 0H23.9455C27.5936 0 30.5509 2.94141 30.5509 6.57V23.43C30.5509 27.0586 27.5936 30 23.9455 30H6.9944C3.34621 30 0.388916 27.0586 0.388916 23.43V6.57C0.388916 2.94141 3.34621 0 6.9944 0Z" fill="url(#paint0_linear_641_8635)"/>
<path d="M10.0551 21.7755L10.0579 21.7764L9.02662 23.553C8.65019 24.2015 7.81649 24.4237 7.16447 24.0493C6.51257 23.6748 6.28907 22.8456 6.6655 22.1971L7.42521 20.8884L7.49814 20.7627C7.62833 20.5766 7.94963 20.2553 8.59234 20.3158C8.59234 20.3158 10.1048 20.479 10.2143 21.2609C10.2143 21.2609 10.2291 21.5181 10.0551 21.7755ZM24.6817 17.238H21.4659C21.2468 17.2233 21.1513 17.1455 21.1136 17.1003L21.1112 17.0962L17.6689 11.1658L17.6644 11.1687L17.458 10.8743C17.1196 10.3596 16.5823 11.6759 16.5823 11.6759C15.9408 13.1426 16.6734 14.8101 16.9287 15.3141L21.7101 23.5512C22.0864 24.1996 22.9201 24.4219 23.5723 24.0474C24.2242 23.673 24.4477 22.8437 24.0711 22.1952L22.8756 20.1355C22.8524 20.0856 22.8121 19.9502 23.0573 19.9496H24.6817C25.4345 19.9496 26.0448 19.3425 26.0448 18.5937C26.0448 17.8449 25.4345 17.2378 24.6817 17.2378V17.238ZM18.4355 19.0811C18.4355 19.0811 18.6072 19.9496 17.943 19.9496H6.05508C5.3022 19.9496 4.69189 19.3425 4.69189 18.5937C4.69189 17.8449 5.3022 17.2378 6.05508 17.2378H9.11134C9.60477 17.2095 9.72165 16.9261 9.72165 16.9261L9.72447 16.9275L13.7139 10.0547L13.7127 10.0545C13.7854 9.92171 13.7248 9.79621 13.7143 9.7764L12.3968 7.5066C12.0203 6.8582 12.2437 6.02886 12.8957 5.65457C13.5477 5.28015 14.3814 5.50222 14.7579 6.15074L15.3689 7.20343L15.9789 6.15261C16.3553 5.50421 17.189 5.28191 17.841 5.65644C18.493 6.03086 18.7164 6.85996 18.34 7.50847L12.7885 17.0721C12.7642 17.1304 12.7568 17.2218 12.9374 17.2378H16.2557L16.2564 17.2701C16.2564 17.2701 18.1743 17.2997 18.4355 19.0811Z" fill="white"/>
</g>
<defs>
<linearGradient id="paint0_linear_641_8635" x1="15.4699" y1="0" x2="15.4699" y2="30" gradientUnits="userSpaceOnUse">
<stop stop-color="#17C9FB"/>
<stop offset="1" stop-color="#1A74E8"/>
</linearGradient>
<clipPath id="clip0_641_8635">
<rect width="30.162" height="30" fill="white" transform="translate(0.388916)"/>
</clipPath>
</defs>
</svg>
