<svg width="24" height="24" viewBox="0 0 24 24" fill="none" xmlns="http://www.w3.org/2000/svg">
<path d="M8.25 7.5C8.05109 7.5 7.86032 7.57902 7.71967 7.71967C7.57902 7.86032 7.5 8.05109 7.5 8.25C7.5 8.44891 7.57902 8.63968 7.71967 8.78033C7.86032 8.92098 8.05109 9 8.25 9H15.75C15.9489 9 16.1397 8.92098 16.2803 8.78033C16.421 8.63968 16.5 8.44891 16.5 8.25C16.5 8.05109 16.421 7.86032 16.2803 7.71967C16.1397 7.57902 15.9489 7.5 15.75 7.5H8.25ZM8.25 10.5C8.05109 10.5 7.86032 10.579 7.71967 10.7197C7.57902 10.8603 7.5 11.0511 7.5 11.25C7.5 11.4489 7.57902 11.6397 7.71967 11.7803C7.86032 11.921 8.05109 12 8.25 12H12.75C12.9489 12 13.1397 11.921 13.2803 11.7803C13.421 11.6397 13.5 11.4489 13.5 11.25C13.5 11.0511 13.421 10.8603 13.2803 10.7197C13.1397 10.579 12.9489 10.5 12.75 10.5H8.25Z" fill="white"/>
<path d="M12 3C12.7956 3 13.5587 2.68393 14.1213 2.12132C14.6839 1.55871 15 0.79565 15 0H18.75C19.3467 0 19.919 0.237053 20.341 0.65901C20.7629 1.08097 21 1.65326 21 2.25V21.75C21 22.3467 20.7629 22.919 20.341 23.341C19.919 23.7629 19.3467 24 18.75 24H5.25C4.65326 24 4.08097 23.7629 3.65901 23.341C3.23705 22.919 3 22.3467 3 21.75V2.25C3 1.65326 3.23705 1.08097 3.65901 0.65901C4.08097 0.237053 4.65326 0 5.25 0L9 0C9 0.79565 9.31607 1.55871 9.87868 2.12132C10.4413 2.68393 11.2044 3 12 3ZM12 4.5C11.0691 4.50027 10.161 4.21191 9.40072 3.67464C8.64048 3.13737 8.06552 2.37761 7.755 1.5H5.25C5.05109 1.5 4.86032 1.57902 4.71967 1.71967C4.57902 1.86032 4.5 2.05109 4.5 2.25V21.75C4.5 21.9489 4.57902 22.1397 4.71967 22.2803C4.86032 22.421 5.05109 22.5 5.25 22.5H18.75C18.9489 22.5 19.1397 22.421 19.2803 22.2803C19.421 22.1397 19.5 21.9489 19.5 21.75V2.25C19.5 2.05109 19.421 1.86032 19.2803 1.71967C19.1397 1.57902 18.9489 1.5 18.75 1.5H16.245C15.9345 2.37761 15.3595 3.13737 14.5993 3.67464C13.839 4.21191 12.9309 4.50027 12 4.5Z" fill="white"/>
</svg>
