<svg width="20" height="21" viewBox="0 0 20 21" fill="none" xmlns="http://www.w3.org/2000/svg">
<path d="M2.12059 20.375C1.67353 20.375 1.29167 20.2269 0.975 19.9306C0.658333 19.6343 0.5 19.277 0.5 18.8587V3.72141C0.5 3.32053 0.658333 2.96759 0.975 2.66258C1.29167 2.35757 1.67353 2.20507 2.12059 2.20507H4.18824V0.375H5.58529V2.20507H14.4706V0.375H15.8397V2.20507H17.8794C18.3265 2.20507 18.7083 2.35757 19.025 2.66258C19.3417 2.96759 19.5 3.32053 19.5 3.72141V18.8587C19.5 19.277 19.3417 19.6343 19.025 19.9306C18.7083 20.2269 18.3265 20.375 17.8794 20.375H2.12059ZM2.12059 19.1985H17.8794C17.9725 19.1985 18.0564 19.1637 18.1309 19.094C18.2054 19.0242 18.2426 18.9458 18.2426 18.8587V8.47958H1.75735V18.8587C1.75735 18.9458 1.79461 19.0242 1.86912 19.094C1.94363 19.1637 2.02745 19.1985 2.12059 19.1985ZM1.75735 7.3031H18.2426V3.72141C18.2426 3.63426 18.2054 3.56019 18.1309 3.49918C18.0564 3.43818 17.9725 3.40768 17.8794 3.40768H2.12059C2.02745 3.40768 1.94363 3.43818 1.86912 3.49918C1.79461 3.56019 1.75735 3.63426 1.75735 3.72141V7.3031ZM1.75735 7.3031V3.40768V7.3031ZM10 12.6103C9.72059 12.6103 9.48775 12.5188 9.30147 12.3358C9.1152 12.1528 9.02206 11.9393 9.02206 11.6953C9.02206 11.4338 9.1152 11.2116 9.30147 11.0286C9.48775 10.8456 9.72059 10.7541 10 10.7541C10.2794 10.7541 10.5123 10.8456 10.6985 11.0286C10.8848 11.2116 10.9779 11.4338 10.9779 11.6953C10.9779 11.9393 10.8848 12.1528 10.6985 12.3358C10.5123 12.5188 10.2794 12.6103 10 12.6103ZM5.52941 12.6103C5.25 12.6103 5.01716 12.5188 4.83088 12.3358C4.64461 12.1528 4.55147 11.9393 4.55147 11.6953C4.55147 11.4338 4.64461 11.2116 4.83088 11.0286C5.01716 10.8456 5.25 10.7541 5.52941 10.7541C5.80882 10.7541 6.04167 10.8456 6.22794 11.0286C6.41422 11.2116 6.50735 11.4338 6.50735 11.6953C6.50735 11.9393 6.41422 12.1528 6.22794 12.3358C6.04167 12.5188 5.80882 12.6103 5.52941 12.6103ZM14.4706 12.6103C14.1912 12.6103 13.9583 12.5188 13.7721 12.3358C13.5858 12.1528 13.4926 11.9393 13.4926 11.6953C13.4926 11.4338 13.5858 11.2116 13.7721 11.0286C13.9583 10.8456 14.1912 10.7541 14.4706 10.7541C14.75 10.7541 14.9828 10.8456 15.1691 11.0286C15.3554 11.2116 15.4485 11.4338 15.4485 11.6953C15.4485 11.9393 15.3554 12.1528 15.1691 12.3358C14.9828 12.5188 14.75 12.6103 14.4706 12.6103ZM10 16.7149C9.72059 16.7149 9.48775 16.6234 9.30147 16.4404C9.1152 16.2574 9.02206 16.0438 9.02206 15.7998C9.02206 15.5384 9.1152 15.3162 9.30147 15.1332C9.48775 14.9502 9.72059 14.8587 10 14.8587C10.2794 14.8587 10.5123 14.9502 10.6985 15.1332C10.8848 15.3162 10.9779 15.5384 10.9779 15.7998C10.9779 16.0438 10.8848 16.2574 10.6985 16.4404C10.5123 16.6234 10.2794 16.7149 10 16.7149ZM5.52941 16.7149C5.25 16.7149 5.01716 16.6234 4.83088 16.4404C4.64461 16.2574 4.55147 16.0438 4.55147 15.7998C4.55147 15.5384 4.64461 15.3162 4.83088 15.1332C5.01716 14.9502 5.25 14.8587 5.52941 14.8587C5.80882 14.8587 6.04167 14.9502 6.22794 15.1332C6.41422 15.3162 6.50735 15.5384 6.50735 15.7998C6.50735 16.0438 6.41422 16.2574 6.22794 16.4404C6.04167 16.6234 5.80882 16.7149 5.52941 16.7149ZM14.4706 16.7149C14.1912 16.7149 13.9583 16.6234 13.7721 16.4404C13.5858 16.2574 13.4926 16.0438 13.4926 15.7998C13.4926 15.5384 13.5858 15.3162 13.7721 15.1332C13.9583 14.9502 14.1912 14.8587 14.4706 14.8587C14.75 14.8587 14.9828 14.9502 15.1691 15.1332C15.3554 15.3162 15.4485 15.5384 15.4485 15.7998C15.4485 16.0438 15.3554 16.2574 15.1691 16.4404C14.9828 16.6234 14.75 16.7149 14.4706 16.7149Z" fill="white" fill-opacity="0.6"/>
</svg>
