<svg width="32" height="32" viewBox="0 0 32 32" fill="none" xmlns="http://www.w3.org/2000/svg">
<path d="M26 7.25H22.4L20.625 4.5875C20.5568 4.48398 20.4641 4.39897 20.355 4.34007C20.2459 4.28117 20.124 4.25023 20 4.25H12C11.876 4.25023 11.7541 4.28117 11.645 4.34007C11.5359 4.39897 11.4432 4.48398 11.375 4.5875L9.6 7.25H6C5.27167 7.25329 4.5741 7.54408 4.05909 8.05909C3.54408 8.5741 3.25329 9.27167 3.25 10V24C3.25329 24.7283 3.54408 25.4259 4.05909 25.9409C4.5741 26.4559 5.27167 26.7467 6 26.75H26C26.7283 26.7467 27.4259 26.4559 27.9409 25.9409C28.4559 25.4259 28.7467 24.7283 28.75 24V10C28.7467 9.27167 28.4559 8.5741 27.9409 8.05909C27.4259 7.54408 26.7283 7.25329 26 7.25ZM27.25 24C27.25 24.3315 27.1183 24.6495 26.8839 24.8839C26.6495 25.1183 26.3315 25.25 26 25.25H6C5.66848 25.25 5.35054 25.1183 5.11612 24.8839C4.8817 24.6495 4.75 24.3315 4.75 24V10C4.75 9.66848 4.8817 9.35054 5.11612 9.11612C5.35054 8.8817 5.66848 8.75 6 8.75H10C10.124 8.74977 10.2459 8.71883 10.355 8.65993C10.4641 8.60103 10.5568 8.51602 10.625 8.4125L12.4 5.75H19.6L21.375 8.4125C21.4432 8.51602 21.5359 8.60103 21.645 8.65993C21.7541 8.71883 21.876 8.74977 22 8.75H26C26.3315 8.75 26.6495 8.8817 26.8839 9.11612C27.1183 9.35054 27.25 9.66848 27.25 10V24ZM20.0625 19.5C20.134 19.5688 20.1908 19.6513 20.2296 19.7426C20.2684 19.8339 20.2885 19.9321 20.2885 20.0312C20.2885 20.1304 20.2684 20.2286 20.2296 20.3199C20.1908 20.4112 20.134 20.4937 20.0625 20.5625C19.5295 21.0969 18.8963 21.5209 18.1992 21.8102C17.5021 22.0995 16.7548 22.2485 16 22.2485C15.2452 22.2485 14.4979 22.0995 13.8008 21.8102C13.1037 21.5209 12.4705 21.0969 11.9375 20.5625H11.925L11 19.5875L10.7375 21.125C10.708 21.2994 10.6178 21.4578 10.4829 21.5722C10.3479 21.6865 10.1769 21.7495 10 21.75H9.875C9.77753 21.7349 9.68407 21.7004 9.60016 21.6486C9.51625 21.5968 9.44359 21.5286 9.38648 21.4482C9.32937 21.3678 9.28897 21.2767 9.26768 21.1804C9.24638 21.0841 9.24462 20.9845 9.2625 20.8875L9.7625 17.8875C9.78694 17.7339 9.85934 17.5919 9.96935 17.4819C10.0794 17.3718 10.2214 17.2994 10.375 17.275L13.375 16.775C13.5636 16.757 13.7521 16.811 13.9025 16.9263C14.0529 17.0416 14.1541 17.2095 14.1857 17.3963C14.2174 17.5831 14.1772 17.775 14.0732 17.9333C13.9691 18.0917 13.809 18.2048 13.625 18.25L12.025 18.5L13 19.5125C13.3944 19.9063 13.8627 20.2183 14.3779 20.4309C14.8932 20.6434 15.4453 20.7522 16.0026 20.751C16.5599 20.7499 17.1116 20.6388 17.6259 20.4241C18.1403 20.2094 18.6072 19.8954 19 19.5C19.1423 19.3618 19.3329 19.2845 19.5312 19.2845C19.7296 19.2845 19.9202 19.3618 20.0625 19.5ZM22.7375 12.125L22.2375 15.125C22.2131 15.2786 22.1407 15.4206 22.0306 15.5306C21.9206 15.6407 21.7786 15.7131 21.625 15.7375L18.625 16.2375H18.5C18.3231 16.237 18.1521 16.174 18.0171 16.0597C17.8822 15.9453 17.792 15.7869 17.7625 15.6125C17.7446 15.5155 17.7464 15.4159 17.7677 15.3196C17.789 15.2233 17.8294 15.1322 17.8865 15.0518C17.9436 14.9714 18.0162 14.9032 18.1002 14.8514C18.1841 14.7996 18.2775 14.7651 18.375 14.75L19.975 14.4875L19 13.475C18.6056 13.0812 18.1373 12.7692 17.6221 12.5566C17.1068 12.3441 16.5547 12.2353 15.9974 12.2365C15.4401 12.2376 14.8884 12.3487 14.3741 12.5634C13.8597 12.7781 13.3928 13.0921 13 13.4875C12.8577 13.6257 12.6671 13.703 12.4688 13.703C12.2704 13.703 12.0798 13.6257 11.9375 13.4875C11.866 13.4187 11.8092 13.3362 11.7704 13.2449C11.7316 13.1536 11.7115 13.0554 11.7115 12.9563C11.7115 12.8571 11.7316 12.7589 11.7704 12.6676C11.8092 12.5763 11.866 12.4938 11.9375 12.425C12.4705 11.8906 13.1037 11.4666 13.8008 11.1773C14.4979 10.888 15.2452 10.739 16 10.739C16.7548 10.739 17.5021 10.888 18.1992 11.1773C18.8963 11.4666 19.5295 11.8906 20.0625 12.425H20.075L21 13.4L21.2625 11.875C21.3077 11.691 21.4208 11.5309 21.5792 11.4268C21.7375 11.3228 21.9294 11.2826 22.1162 11.3143C22.303 11.3459 22.471 11.4471 22.5862 11.5975C22.7015 11.7479 22.7555 11.9364 22.7375 12.125Z" fill="white"/>
</svg>
