<svg width="23" height="22" viewBox="0 0 23 22" fill="none" xmlns="http://www.w3.org/2000/svg">
<path d="M0.821289 3.32851C0.821289 2.61623 1.10255 1.93312 1.60321 1.42946C2.10386 0.925805 2.7829 0.642853 3.49093 0.642853L19.5088 0.642853C20.2168 0.642853 20.8959 0.925805 21.3965 1.42946C21.8972 1.93312 22.1784 2.61623 22.1784 3.32851V14.0711C22.1784 14.7834 21.8972 15.4665 21.3965 15.9702C20.8959 16.4738 20.2168 16.7568 19.5088 16.7568H6.71319C6.3592 16.7569 6.01974 16.8984 5.76947 17.1502L1.96123 20.9813C1.86796 21.0754 1.74906 21.1395 1.61956 21.1655C1.49006 21.1916 1.35579 21.1784 1.23375 21.1276C1.1117 21.0769 1.00737 20.9909 0.933944 20.8804C0.860523 20.77 0.821317 20.6401 0.821289 20.5073V3.32851ZM5.49316 4.67133C5.31616 4.67133 5.1464 4.74207 5.02123 4.86799C4.89607 4.9939 4.82575 5.16468 4.82575 5.34275C4.82575 5.52082 4.89607 5.69159 5.02123 5.81751C5.1464 5.94342 5.31616 6.01416 5.49316 6.01416H17.5066C17.6836 6.01416 17.8533 5.94342 17.9785 5.81751C18.1037 5.69159 18.174 5.52082 18.174 5.34275C18.174 5.16468 18.1037 4.9939 17.9785 4.86799C17.8533 4.74207 17.6836 4.67133 17.5066 4.67133H5.49316ZM5.49316 8.0284C5.31616 8.0284 5.1464 8.09914 5.02123 8.22506C4.89607 8.35097 4.82575 8.52175 4.82575 8.69982C4.82575 8.87789 4.89607 9.04866 5.02123 9.17458C5.1464 9.30049 5.31616 9.37123 5.49316 9.37123H17.5066C17.6836 9.37123 17.8533 9.30049 17.9785 9.17458C18.1037 9.04866 18.174 8.87789 18.174 8.69982C18.174 8.52175 18.1037 8.35097 17.9785 8.22506C17.8533 8.09914 17.6836 8.0284 17.5066 8.0284H5.49316ZM5.49316 11.3855C5.31616 11.3855 5.1464 11.4562 5.02123 11.5821C4.89607 11.708 4.82575 11.8788 4.82575 12.0569C4.82575 12.235 4.89607 12.4057 5.02123 12.5316C5.1464 12.6576 5.31616 12.7283 5.49316 12.7283H12.1673C12.3443 12.7283 12.514 12.6576 12.6392 12.5316C12.7644 12.4057 12.8347 12.235 12.8347 12.0569C12.8347 11.8788 12.7644 11.708 12.6392 11.5821C12.514 11.4562 12.3443 11.3855 12.1673 11.3855H5.49316Z" fill="#D70237"/>
</svg>
