<svg width="108" height="98" viewBox="0 0 108 98" fill="none" xmlns="http://www.w3.org/2000/svg">
<mask id="mask0_441_5623" style="mask-type:alpha" maskUnits="userSpaceOnUse" x="22" y="5" width="63" height="62">
<rect x="44.8991" y="4.41602" width="55.4807" height="34.4917" rx="1.55334" transform="rotate(42.9302 44.8991 4.41602)" fill="white"/>
</mask>
<g mask="url(#mask0_441_5623)">
<g filter="url(#filter0_i_441_5623)">
<rect x="44.8991" y="4.41602" width="55.4807" height="34.4917" rx="1.55334" transform="rotate(42.9302 44.8991 4.41602)" fill="#FFF5EB"/>
</g>
<path d="M79.6323 44.0563L53.7089 34.6133L43.4349 10.3818" stroke="#FFCF9D" stroke-width="1.55334" stroke-linecap="round" stroke-linejoin="round"/>
<path d="M58.4401 37.084L60.7895 62.157" stroke="#FFCF9D" stroke-width="1.55334" stroke-linecap="round"/>
<path d="M51.9827 31.1201L26.8389 29.7203" stroke="#FFCF9D" stroke-width="1.55334" stroke-linecap="round"/>
<g style="mix-blend-mode:multiply" filter="url(#filter1_f_441_5623)">
<rect x="42.0135" y="36.2773" width="57.4754" height="34.4917" rx="1.55334" transform="rotate(26.2835 42.0135 36.2773)" fill="#F3C799"/>
</g>
</g>
<g filter="url(#filter2_i_441_5623)">
<rect x="48.2293" y="32.2334" width="65.3159" height="40.6061" rx="1.8287" transform="rotate(25.8643 48.2293 32.2334)" fill="#FFF5EB"/>
</g>
<path d="M101.015 64.8475L68.5771 63.1763L48.6426 39.4551" stroke="#FCCD9C" stroke-width="1.8287" stroke-linecap="round" stroke-linejoin="round"/>
<path d="M74.7556 64.3232L86.0623 91.7296" stroke="#FCCD9C" stroke-width="1.8287" stroke-linecap="round"/>
<path d="M65.4283 59.8428L36.6469 66.9544" stroke="#FCCD9C" stroke-width="1.8287" stroke-linecap="round"/>
<path d="M7.62237 63.0416C3.45377 68.9521 2.85629 79.336 13.2871 83.5224C23.7178 87.7088 28.3347 76.745 22.0966 74.7696C13.8737 72.1658 13.6368 92.3113 33.1719 89.8938" stroke="#FEB972" stroke-width="0.719855" stroke-linecap="round" stroke-dasharray="1.44 1.44"/>
<defs>
<filter id="filter0_i_441_5623" x="22.0485" y="-5.81573" width="72.1507" height="72.6321" filterUnits="userSpaceOnUse" color-interpolation-filters="sRGB">
<feFlood flood-opacity="0" result="BackgroundImageFix"/>
<feBlend mode="normal" in="SourceGraphic" in2="BackgroundImageFix" result="shape"/>
<feColorMatrix in="SourceAlpha" type="matrix" values="0 0 0 0 0 0 0 0 0 0 0 0 0 0 0 0 0 0 127 0" result="hardAlpha"/>
<feOffset dx="9.32002" dy="-10.8734"/>
<feGaussianBlur stdDeviation="18.64"/>
<feComposite in2="hardAlpha" operator="arithmetic" k2="-1" k3="1"/>
<feColorMatrix type="matrix" values="0 0 0 0 1 0 0 0 0 0.960784 0 0 0 0 0.921569 0 0 0 1 0"/>
<feBlend mode="normal" in2="shape" result="effect1_innerShadow_441_5623"/>
</filter>
<filter id="filter1_f_441_5623" x="16.0933" y="25.631" width="88.1003" height="77.6697" filterUnits="userSpaceOnUse" color-interpolation-filters="sRGB">
<feFlood flood-opacity="0" result="BackgroundImageFix"/>
<feBlend mode="normal" in="SourceGraphic" in2="BackgroundImageFix" result="shape"/>
<feGaussianBlur stdDeviation="5.58685" result="effect1_foregroundBlur_441_5623"/>
</filter>
<filter id="filter2_i_441_5623" x="31.1294" y="20.0468" width="86.2312" height="76.6046" filterUnits="userSpaceOnUse" color-interpolation-filters="sRGB">
<feFlood flood-opacity="0" result="BackgroundImageFix"/>
<feBlend mode="normal" in="SourceGraphic" in2="BackgroundImageFix" result="shape"/>
<feColorMatrix in="SourceAlpha" type="matrix" values="0 0 0 0 0 0 0 0 0 0 0 0 0 0 0 0 0 0 127 0" result="hardAlpha"/>
<feOffset dx="10.9722" dy="-12.8009"/>
<feGaussianBlur stdDeviation="21.9444"/>
<feComposite in2="hardAlpha" operator="arithmetic" k2="-1" k3="1"/>
<feColorMatrix type="matrix" values="0 0 0 0 1 0 0 0 0 0.964706 0 0 0 0 0.917647 0 0 0 1 0"/>
<feBlend mode="normal" in2="shape" result="effect1_innerShadow_441_5623"/>
</filter>
</defs>
</svg>
