<svg width="24" height="24" viewBox="0 0 24 24" fill="none" xmlns="http://www.w3.org/2000/svg">
    <path
        d="M24 12L21.3382 8.81143L21.7091 4.59429L17.7709 3.65714L15.7091 0L12 1.66857L8.29091 0L6.22909 3.64571L2.29091 4.57143L2.66182 8.8L0 12L2.66182 15.1886L2.29091 19.4171L6.22909 20.3543L8.29091 24L12 22.32L15.7091 23.9886L17.7709 20.3429L21.7091 19.4057L21.3382 15.1886L24 12ZM9.14182 16.5829L6.54545 13.84C6.44432 13.7343 6.36409 13.6087 6.30935 13.4704C6.2546 13.3322 6.22642 13.184 6.22642 13.0343C6.22642 12.8846 6.2546 12.7364 6.30935 12.5981C6.36409 12.4599 6.44432 12.3343 6.54545 12.2286L6.62182 12.1486C7.04727 11.7029 7.74545 11.7029 8.17091 12.1486L9.92727 14L15.5455 8.10286C15.9709 7.65714 16.6691 7.65714 17.0945 8.10286L17.1709 8.18286C17.5964 8.62857 17.5964 9.34857 17.1709 9.79429L10.7127 16.5829C10.2655 17.0286 9.57818 17.0286 9.14182 16.5829Z"
        fill="#1BA653" />
</svg>