<svg height="64" id="svg8" version="1.1" viewBox="0 0 16.933333 16.933334" width="64" xmlns="http://www.w3.org/2000/svg" ><defs id="defs2"/><g id="layer1" transform="translate(0,-280.06665)"><path d="m 13.73846,288.49022 c -0.07,0 -0.13569,0.0284 -0.18448,0.077 -0.31184,0.31195 -0.62401,0.62396 -0.93586,0.93591 l 2.24482,2.24487 c 0.31184,-0.3119 0.62356,-0.62393 0.93534,-0.93589 0.1023,-0.10311 0.1023,-0.26946 0,-0.37259 l -1.87068,-1.87124 c -0.0504,-0.0507 -0.11912,-0.0791 -0.18914,-0.0781 z m -1.49448,1.38704 c -1.24697,1.2472 -2.49402,2.49435 -3.74189,3.742 -0.0501,0.0496 -0.0784,0.11708 -0.0786,0.1876 v 1.87124 c 5.3e-4,0.14618 0.11949,0.26419 0.26562,0.26355 h 1.8712 c 0.0694,0 0.13605,-0.0273 0.18552,-0.076 1.2473,-1.24834 2.49524,-2.49565 3.74292,-3.74354 z" id="path3829" style="color:#000000;font-style:normal;font-variant:normal;font-weight:normal;font-stretch:normal;font-size:medium;line-height:normal;font-family:sans-serif;font-variant-ligatures:normal;font-variant-position:normal;font-variant-caps:normal;font-variant-numeric:normal;font-variant-alternates:normal;font-feature-settings:normal;text-indent:0;text-align:start;text-decoration:none;text-decoration-line:none;text-decoration-style:solid;text-decoration-color:#000000;letter-spacing:normal;word-spacing:normal;text-transform:none;writing-mode:lr-tb;direction:ltr;text-orientation:mixed;dominant-baseline:auto;baseline-shift:baseline;text-anchor:start;white-space:normal;shape-padding:0;clip-rule:nonzero;display:inline;overflow:visible;visibility:visible;opacity:1;isolation:auto;mix-blend-mode:normal;color-interpolation:sRGB;color-interpolation-filters:linearRGB;solid-color:#000000;solid-opacity:1;vector-effect:none;fill:#D70237;fill-opacity:1;fill-rule:nonzero;stroke:none;stroke-width:0.52900004;stroke-linecap:round;stroke-linejoin:round;stroke-miterlimit:4;stroke-dasharray:none;stroke-dashoffset:0;stroke-opacity:1;paint-order:normal;color-rendering:auto;image-rendering:auto;shape-rendering:auto;text-rendering:auto;enable-background:accumulate"/><path d="m 1.32396,281.12497 a 0.26458535,0.26458535 0 0 0 -0.26562,0.26562 v 12.16876 a 0.26458535,0.26458535 0 0 0 0.26562,0.26561 h 6.57066 v -0.017 a 0.52921962,0.52921962 0 0 1 0,-0.002 c 6e-4,-0.21027 0.0839,-0.41254 0.23254,-0.56071 1.67884,-1.67849 3.35743,-3.35536 5.03484,-5.03327 a 0.52921962,0.52921962 0 0 1 0.0176,-0.0176 0.52921962,0.52921962 0 0 1 0,-0.002 c 0.14655,-0.14597 0.34657,-0.22749 0.55087,-0.23048 0.009,-1.4e-4 0.0185,0.002 0.0279,0.003 v -6.57374 a 0.26458535,0.26458535 0 0 0 -0.26561,-0.26562 z m 8.95707,1.32343 h 5.2e-4 a 0.26464216,0.26465449 0 0 1 0.27182,0.26355 v 6.87917 5.1e-4 c 0,0.76364 -0.74372,1.32291 -1.58905,1.32291 -0.84533,0 -1.58595,-0.55927 -1.58595,-1.32291 0,-0.76364 0.74062,-1.32292 1.58595,-1.32292 0.39943,0 0.77267,0.12827 1.05885,0.34055 v -3.78167 l -4.2323,1.75184 v 4.5997 c 0,0.76364 -0.74269,1.32291 -1.5875,1.32291 -0.84481,0 -1.5875,-0.55927 -1.5875,-1.32291 0,-0.76364 0.74269,-1.32292 1.5875,-1.32292 0.39918,0 0.77233,0.12824 1.05833,0.34055 v -5.51232 a 0.26464216,0.26465449 0 0 1 0.1633,-0.24391 l 4.7625,-1.97301 a 0.26464216,0.26465449 0 0 1 0.0935,-0.0191 z" id="path3800" style="color:#000000;font-style:normal;font-variant:normal;font-weight:normal;font-stretch:normal;font-size:medium;line-height:normal;font-family:sans-serif;font-variant-ligatures:normal;font-variant-position:normal;font-variant-caps:normal;font-variant-numeric:normal;font-variant-alternates:normal;font-feature-settings:normal;text-indent:0;text-align:start;text-decoration:none;text-decoration-line:none;text-decoration-style:solid;text-decoration-color:#000000;letter-spacing:normal;word-spacing:normal;text-transform:none;writing-mode:lr-tb;direction:ltr;text-orientation:mixed;dominant-baseline:auto;baseline-shift:baseline;text-anchor:start;white-space:normal;shape-padding:0;clip-rule:nonzero;display:inline;overflow:visible;visibility:visible;opacity:1;isolation:auto;mix-blend-mode:normal;color-interpolation:sRGB;color-interpolation-filters:linearRGB;solid-color:#000000;solid-opacity:1;vector-effect:none;fill:#D70237;fill-opacity:1;fill-rule:nonzero;stroke:none;stroke-width:0.5291667;stroke-linecap:butt;stroke-linejoin:round;stroke-miterlimit:4;stroke-dasharray:none;stroke-dashoffset:0;stroke-opacity:1;paint-order:normal;color-rendering:auto;image-rendering:auto;shape-rendering:auto;text-rendering:auto;enable-background:accumulate"/></g></svg>