<svg width="22" height="22" viewBox="0 0 22 22" fill="none" xmlns="http://www.w3.org/2000/svg">
<g clip-path="url(#clip0_640_8160)">
<path d="M18.6244 3.80997C17.2222 3.16658 15.7186 2.69255 14.1464 2.42106C14.1178 2.41582 14.0892 2.42892 14.0744 2.4551C13.881 2.79905 13.6668 3.24776 13.5168 3.60044C11.8259 3.34729 10.1436 3.34729 8.48728 3.60044C8.33725 3.23992 8.11527 2.79905 7.92102 2.4551C7.90627 2.42979 7.87767 2.41669 7.84903 2.42106C6.27774 2.69169 4.77409 3.16571 3.37101 3.80997C3.35887 3.8152 3.34845 3.82394 3.34154 3.83528C0.489431 8.09628 -0.291883 12.2525 0.0914034 16.3573C0.0931377 16.3774 0.104411 16.3966 0.12002 16.4088C2.00176 17.7907 3.82455 18.6296 5.61349 19.1857C5.64213 19.1944 5.67246 19.184 5.69068 19.1604C6.11385 18.5825 6.49108 17.9732 6.81451 17.3324C6.8336 17.2949 6.81538 17.2503 6.77636 17.2355C6.17803 17.0085 5.60829 16.7318 5.06024 16.4175C5.01689 16.3922 5.01342 16.3302 5.0533 16.3005C5.16863 16.2141 5.28399 16.1242 5.39411 16.0334C5.41404 16.0168 5.4418 16.0133 5.46523 16.0238C9.06567 17.6676 12.9636 17.6676 16.5215 16.0238C16.545 16.0124 16.5727 16.0159 16.5935 16.0325C16.7037 16.1233 16.819 16.2141 16.9352 16.3005C16.9751 16.3302 16.9725 16.3922 16.9291 16.4175C16.3811 16.7379 15.8113 17.0085 15.2121 17.2346C15.1731 17.2495 15.1558 17.2949 15.1748 17.3324C15.5052 17.9723 15.8824 18.5816 16.2978 19.1595C16.3152 19.184 16.3464 19.1944 16.375 19.1857C18.1726 18.6296 19.9954 17.7907 21.8771 16.4088C21.8936 16.3966 21.904 16.3782 21.9058 16.3581C22.3645 11.6126 21.1374 7.49044 18.653 3.83615C18.6469 3.82394 18.6366 3.8152 18.6244 3.80997ZM7.35218 13.8579C6.2682 13.8579 5.37503 12.8628 5.37503 11.6406C5.37503 10.4184 6.25087 9.42322 7.35218 9.42322C8.46212 9.42322 9.34665 10.4271 9.32929 11.6406C9.32929 12.8628 8.45345 13.8579 7.35218 13.8579ZM14.6623 13.8579C13.5784 13.8579 12.6852 12.8628 12.6852 11.6406C12.6852 10.4184 13.561 9.42322 14.6623 9.42322C15.7723 9.42322 16.6568 10.4271 16.6395 11.6406C16.6395 12.8628 15.7723 13.8579 14.6623 13.8579Z" fill="white" fill-opacity="0.6"/>
</g>
<defs>
<clipPath id="clip0_640_8160">
<rect width="22" height="22" fill="white" transform="translate(0.000488281)"/>
</clipPath>
</defs>
</svg>
