<svg width="19" height="19" viewBox="0 0 19 19" fill="none" xmlns="http://www.w3.org/2000/svg">
<g clip-path="url(#clip0_642_11382)">
<path d="M15.6875 16.125H2.6875C2.55489 16.125 2.42771 16.1777 2.33395 16.2714C2.24018 16.3652 2.1875 16.4924 2.1875 16.625C2.1875 16.7576 2.24018 16.8848 2.33395 16.9786C2.42771 17.0723 2.55489 17.125 2.6875 17.125H15.6875C15.8201 17.125 15.9473 17.0723 16.0411 16.9786C16.1348 16.8848 16.1875 16.7576 16.1875 16.625C16.1875 16.4924 16.1348 16.3652 16.0411 16.2714C15.9473 16.1777 15.8201 16.125 15.6875 16.125Z" fill="white"/>
<path d="M9.18754 15.365L14.4925 10.06C14.5745 9.96435 14.6173 9.84131 14.6124 9.71547C14.6075 9.58964 14.5554 9.47027 14.4663 9.38122C14.3773 9.29217 14.2579 9.24001 14.1321 9.23514C14.0062 9.23028 13.8832 9.27309 13.7875 9.355L9.68754 13.45V3.125C9.68754 2.99239 9.63486 2.86521 9.54109 2.77145C9.44733 2.67768 9.32015 2.625 9.18754 2.625C9.05493 2.625 8.92775 2.67768 8.83399 2.77145C8.74022 2.86521 8.68754 2.99239 8.68754 3.125V13.45L4.59254 9.355C4.54772 9.30266 4.49256 9.26015 4.43053 9.23014C4.36849 9.20013 4.30093 9.18326 4.23207 9.1806C4.16321 9.17794 4.09454 9.18954 4.03038 9.21468C3.96622 9.23982 3.90794 9.27795 3.85922 9.32667C3.81049 9.3754 3.77236 9.43368 3.74722 9.49784C3.72208 9.562 3.71048 9.63067 3.71314 9.69953C3.7158 9.76839 3.73267 9.83595 3.76268 9.89799C3.79269 9.96002 3.8352 10.0152 3.88754 10.06L9.18754 15.365Z" fill="white"/>
</g>
<defs>
<clipPath id="clip0_642_11382">
<rect x="0.1875" y="0.625" width="18" height="18" rx="4" fill="white"/>
</clipPath>
</defs>
</svg>
