<svg width="39" height="38" viewBox="0 0 39 38" fill="none" xmlns="http://www.w3.org/2000/svg">
<rect width="39" height="38" rx="4" fill="#FF8200"/>
<path d="M8.32216 31C8.13945 30.9997 7.9588 30.9613 7.79171 30.8874C7.62462 30.8135 7.47473 30.7056 7.35159 30.5706C7.22621 30.4367 7.13054 30.2778 7.07085 30.1044C7.01116 29.9309 6.9888 29.7468 7.00523 29.5641L7.32788 26.0154L22.2328 11.1116L26.8908 15.7695L11.9898 30.672L8.442 30.9947C8.40216 30.9984 8.36217 31.0002 8.32216 31ZM27.8206 14.8382L23.1639 10.1803L25.9571 7.38634C26.0794 7.26387 26.2247 7.1667 26.3845 7.10041C26.5444 7.03412 26.7158 7 26.8888 7C27.0619 7 27.2333 7.03412 27.3931 7.10041C27.553 7.1667 27.6983 7.26387 27.8206 7.38634L30.6138 10.1803C30.7362 10.3026 30.8333 10.4479 30.8996 10.6078C30.9659 10.7678 31 10.9392 31 11.1123C31 11.2854 30.9659 11.4568 30.8996 11.6167C30.8333 11.7766 30.7362 11.9219 30.6138 12.0443L27.8219 14.8369L27.8206 14.8382Z" fill="white"/>
</svg>
