<svg width="21" height="20" viewBox="0 0 21 20" fill="none" xmlns="http://www.w3.org/2000/svg">
<path d="M17.0664 4.27934L17.066 4.27895C16.6393 3.86071 16.1363 3.52834 15.5842 3.29992L15.5836 3.29965C15.0109 3.06176 14.3967 2.93999 13.7765 2.94142L13.7754 2.94142C12.904 2.94142 12.0547 3.18 11.317 3.62998L11.317 3.62999C11.1405 3.73764 10.9732 3.85566 10.815 3.98404L10.5 4.23951L10.185 3.98404C10.0268 3.85566 9.85946 3.73764 9.68298 3.62999L9.68296 3.62998C8.94534 3.18 8.09605 2.94142 7.22461 2.94142C6.59621 2.94142 5.98958 3.06157 5.41641 3.29965L5.41587 3.29988C4.86174 3.52929 4.36283 3.85894 3.93384 4.2791L3.93316 4.27976L3.93316 4.27976C3.50733 4.69525 3.16716 5.19025 2.93193 5.73672L17.0664 4.27934ZM17.0664 4.27934C17.4918 4.69546 17.8321 5.19052 18.0681 5.73683C18.3128 6.3054 18.4373 6.90759 18.4355 7.52789V7.52931C18.4355 8.11124 18.3167 8.7285 18.072 9.36829L18.0716 9.36942C17.8689 9.9034 17.5699 10.4673 17.1824 11.0457C16.569 11.9602 15.7164 12.927 14.6433 13.9178C12.8602 15.5627 11.0953 16.6987 11.029 16.7412L11.0289 16.7412L10.567 17.0375C10.5669 17.0376 10.5667 17.0376 10.5666 17.0377C10.5257 17.0636 10.4723 17.0636 10.4314 17.0377C10.4313 17.0376 10.4312 17.0376 10.4311 17.0375L9.96915 16.7412L9.9692 16.7412L9.96127 16.7363L9.96119 16.7362C9.96036 16.7357 9.95261 16.7309 9.93603 16.7202C9.91965 16.7096 9.89684 16.6948 9.86801 16.6759C9.81037 16.638 9.72919 16.5839 9.6278 16.5149C9.425 16.3768 9.14191 16.1791 8.80497 15.9311C8.13034 15.4344 7.24378 14.7388 6.35485 13.9178L6.35479 13.9178M17.0664 4.27934L6.35479 13.9178M6.35479 13.9178C5.2817 12.9271 4.42918 11.9604 3.81579 11.046M6.35479 13.9178L3.81579 11.046M3.81579 11.046C3.42889 10.4684 3.13122 9.90399 2.926 9.36829L3.81579 11.046ZM2.5625 7.52931C2.5625 6.90802 2.68724 6.30535 2.93192 5.73676L2.9259 9.36804C2.68129 8.72834 2.5625 8.11117 2.5625 7.52931Z" stroke="white"/>
</svg>
