<svg width="173" height="128" viewBox="0 0 173 128" fill="none" xmlns="http://www.w3.org/2000/svg">
<g clip-path="url(#clip0_218_4478)">
<path opacity="0.1" d="M1.86206 61.1812C4.59384 71.7387 10.3719 80.865 19.503 85.289C38.4855 94.483 81.2959 89.7414 113.247 84.2983C129.774 81.4831 144.301 73.714 154.854 62.7806L1.86206 61.1812Z" fill="#FF8200"/>
<path opacity="0.1" d="M169.411 11.4857H151.88C151.048 11.4857 150.366 10.8692 150.366 10.1159C150.366 9.36258 151.048 8.74451 151.88 8.74451H154.912C154.079 8.74451 153.398 8.12801 153.398 7.37311C153.398 6.61822 154.079 6.00329 154.912 6.00329H152.748C151.915 6.00329 151.232 5.38679 151.232 4.6319C151.232 3.877 151.915 3.26208 152.748 3.26208H161.898C159.868 2.4081 157.495 1.80104 154.76 1.48178C129.809 -1.4167 120.901 0.50042 117.759 2.47101C113.842 4.95783 109.492 6.68338 104.935 7.55712C89.5416 10.4304 60.7533 13.8872 34.6607 6.45623C21.6922 2.75567 12.0531 9.00086 6.27661 19.4404H172.456C172.239 16.4067 171.589 13.6041 170.397 11.1523C170.115 11.3703 169.768 11.4876 169.411 11.4857Z" fill="#FF8200"/>
<path opacity="0.1" d="M0.375813 39.1445C-0.297544 45.2846 -0.0686504 51.4902 1.05522 57.564L154.972 62.6579C159.209 58.2636 162.809 53.2969 165.666 47.9029L0.375813 39.1445ZM61.2518 52.2844H58.2212C59.0548 52.2844 59.7373 52.9025 59.7373 53.6558C59.7373 54.4091 59.0548 55.0256 58.2212 55.0256H40.6904C39.8584 55.0256 39.1759 54.4091 39.1759 53.6558C39.1759 52.9025 39.8584 52.2844 40.6904 52.2844H43.7225C42.889 52.2844 42.208 51.6679 42.208 50.9146C42.208 50.1613 42.889 49.5432 43.7225 49.5432H41.5569C40.7234 49.5432 40.0408 48.9267 40.0408 48.1734C40.0408 47.4201 40.7234 46.802 41.5569 46.802H59.0878C59.9213 46.802 60.6023 47.4185 60.6023 48.1734C60.6023 48.9283 59.9213 49.5432 59.0878 49.5432H61.2518C62.0854 49.5432 62.7663 50.1597 62.7663 50.9146C62.7663 51.6695 62.0854 52.2844 61.2518 52.2844Z" fill="#FF8200"/>
<path opacity="0.1" d="M172.462 19.5342L4.42248 23.23C2.37798 27.9843 1.02231 33.3598 0.397949 38.9303H169.518C170.619 35.6712 171.435 32.323 171.959 28.9232C172.464 25.6504 172.665 22.4846 172.462 19.5342ZM34.5161 31.6518H31.4855C32.319 31.6518 33.0016 32.2699 33.0016 33.0232C33.0016 33.7765 32.319 34.3946 31.4855 34.3946H13.9546C13.1227 34.3946 12.4401 33.7765 12.4401 33.0232C12.4401 32.2699 13.1227 31.6518 13.9546 31.6518H16.9868C16.1532 31.6518 15.4723 31.0353 15.4723 30.282C15.4723 29.5287 16.1532 28.9106 16.9868 28.9106H14.8212C13.9876 28.9106 13.3051 28.2941 13.3051 27.5408C13.3051 26.7875 13.9876 26.1694 14.8212 26.1694H32.352C33.1856 26.1694 33.8665 26.7859 33.8665 27.5408C33.8665 28.2957 33.1856 28.9106 32.352 28.9106H34.5161C35.3496 28.9106 36.0306 29.5287 36.0306 30.282C36.0306 31.0353 35.3496 31.6518 34.5161 31.6518Z" fill="#FF8200"/>
<path opacity="0.1" d="M85.7247 122.84C124.548 122.84 156.021 119.944 156.021 116.373C156.021 112.801 124.548 109.906 85.7247 109.906C46.901 109.906 15.4282 112.801 15.4282 116.373C15.4282 119.944 46.901 122.84 85.7247 122.84Z" fill="#FF8200"/>
<path opacity="0.1" d="M132.329 70.9194C132.318 70.9745 132.127 71.8111 131.838 73.1023C131.951 71.9999 132.108 71.2088 132.329 70.9194Z" fill="black"/>
<path d="M127.758 67.6008C128.54 67.6008 129.174 67.1713 129.174 66.6415C129.174 66.1116 128.54 65.6821 127.758 65.6821C126.976 65.6821 126.343 66.1116 126.343 66.6415C126.343 67.1713 126.976 67.6008 127.758 67.6008Z" fill="#E17726"/>
<path d="M81.6215 120.042C108.417 120.042 130.139 98.3202 130.139 71.5246C130.139 44.729 108.417 23.0068 81.6215 23.0068C54.8259 23.0068 33.1038 44.729 33.1038 71.5246C33.1038 98.3202 54.8259 120.042 81.6215 120.042Z" fill="#FFE9D0"/>
<path d="M107.079 95.9063C107.079 103.565 95.038 96.5605 82.1293 96.5605C69.2206 96.5605 56.1641 103.276 56.1641 95.6169C56.1641 91.2495 60.3254 85.1758 66.2954 80.7643C70.7933 77.4397 76.3166 75.0586 81.8651 75.0586C87.5709 75.0586 93.1602 77.6362 97.6188 81.1748C103.246 85.6366 107.079 91.6317 107.079 95.9063Z" fill="#362A29"/>
<path d="M97.6173 81.1724C90.7556 80.1391 78.3454 78.8794 66.2954 80.7619C70.7933 77.4372 76.3167 75.0562 81.8651 75.0562C87.5693 75.0562 93.1587 77.6338 97.6173 81.1724Z" fill="#F6F8FB"/>
<path opacity="0.05" d="M56.1643 37.2759C56.1643 37.2759 41.5492 46.6193 41.6687 61.2344C41.7882 75.8495 56.1643 37.2759 56.1643 37.2759Z" fill="black"/>
<path d="M130.12 10.8882C130.12 10.8882 116.878 10.0909 118.44 19.3698C118.44 19.3698 118.125 21.0086 119.616 21.754C119.616 21.754 119.64 21.0667 120.974 21.2995C121.449 21.379 121.932 21.4023 122.413 21.3687C123.062 21.3245 123.68 21.0694 124.171 20.6421C124.171 20.6421 127.894 19.1056 129.342 13.0208C129.342 13.0208 130.413 11.6935 130.371 11.3538L128.136 12.3068C128.136 12.3068 128.898 13.9188 128.293 15.2588C128.293 15.2588 128.221 12.3666 127.791 12.4279C127.705 12.4421 126.631 12.9862 126.631 12.9862C126.631 12.9862 127.944 15.7951 126.945 17.8349C126.945 17.8349 127.321 14.3749 126.212 13.1891L124.64 14.1076C124.64 14.1076 126.175 17.0076 125.133 19.3745C125.133 19.3745 125.401 15.7447 124.309 14.3309L122.883 15.4428C122.883 15.4428 124.325 18.3019 123.446 20.2647C123.446 20.2647 123.331 16.0388 122.575 15.7196C122.575 15.7196 121.327 16.8205 121.137 17.2718C121.137 17.2718 122.125 19.3462 121.513 20.4408C121.513 20.4408 121.137 17.6257 120.829 17.61C120.829 17.61 119.587 19.4752 119.456 20.7554C119.456 20.7554 119.511 18.8524 120.527 17.4322C120.527 17.4322 119.325 17.6383 118.626 18.4183C118.626 18.4183 118.819 17.0988 120.827 16.984C120.827 16.984 121.854 15.5686 122.13 15.4837C122.13 15.4837 120.124 15.3154 118.909 15.8548C118.909 15.8548 119.978 14.6108 122.496 15.1754L123.911 14.0274C123.911 14.0274 121.272 13.6656 120.153 14.0651C120.153 14.0651 121.441 12.9642 124.29 13.7663L125.824 12.8494C125.824 12.8494 123.573 12.365 122.232 12.5349C122.232 12.5349 123.647 11.7721 126.272 12.5993L127.373 12.1071C127.373 12.1071 125.723 11.7831 125.24 11.7328C124.758 11.6825 124.732 11.5472 124.732 11.5472C125.78 11.3769 126.855 11.5016 127.835 11.9074C127.835 11.9074 130.16 11.0345 130.12 10.8882Z" fill="#FFE9D0"/>
<path d="M116.538 6.76272C116.538 6.76272 110.562 6.40099 111.26 10.5938C111.26 10.5938 111.12 11.3346 111.792 11.6711C111.792 11.6711 111.801 11.3566 112.405 11.4667C112.62 11.502 112.838 11.5125 113.055 11.4981C113.349 11.4771 113.628 11.3619 113.851 11.1694C113.851 11.1694 115.532 10.4743 116.186 7.72521C116.186 7.72521 116.67 7.12601 116.658 6.97188L115.648 7.4028C115.648 7.4028 115.994 8.13096 115.722 8.73645C115.722 8.73645 115.689 7.42954 115.496 7.46099C115.456 7.46099 114.97 7.71263 114.97 7.71263C114.97 7.71263 115.565 8.98179 115.117 9.9034C115.117 9.9034 115.286 8.34013 114.786 7.80384L114.075 8.21903C114.075 8.21903 114.769 9.53067 114.299 10.6001C114.299 10.6001 114.418 8.95977 113.926 8.32126L113.281 8.82295C113.281 8.82295 113.932 10.1141 113.536 11.0011C113.536 11.0011 113.484 9.09188 113.141 8.94719C113.141 8.94719 112.578 9.44417 112.492 9.64862C112.492 9.64862 112.938 10.5922 112.662 11.0813C112.662 11.0813 112.492 9.80903 112.347 9.80431C112.347 9.80431 111.786 10.6457 111.727 11.2197C111.755 10.6855 111.921 10.1677 112.21 9.71782C111.887 9.77904 111.588 9.93378 111.352 10.1629C111.352 10.1629 111.438 9.56684 112.349 9.51494C112.349 9.51494 112.813 8.87642 112.937 8.83711C112.937 8.83711 112.031 8.76162 111.482 9.00538C111.482 9.00538 111.965 8.44236 113.104 8.69084L113.733 8.17343C113.733 8.17343 112.541 8.01616 112.034 8.18915C112.034 8.18915 112.616 7.69218 113.904 8.05547L114.596 7.64028C114.596 7.64028 113.58 7.42168 112.973 7.50031C112.973 7.50031 113.613 7.15589 114.799 7.53019L115.294 7.30687C115.294 7.30687 114.549 7.16061 114.332 7.13859C114.115 7.11657 114.101 7.05524 114.101 7.05524C114.573 6.9767 115.057 7.03116 115.5 7.21251C115.5 7.21251 116.556 6.82877 116.538 6.76272Z" fill="#FFE9D0"/>
<path opacity="0.1" d="M168.765 114.809C171.104 114.809 173 114.488 173 114.093C173 113.698 171.104 113.377 168.765 113.377C166.426 113.377 164.53 113.698 164.53 114.093C164.53 114.488 166.426 114.809 168.765 114.809Z" fill="#FF8200"/>
<path opacity="0.1" d="M7.35564 126.713C9.69472 126.713 11.5909 126.393 11.5909 125.997C11.5909 125.602 9.69472 125.282 7.35564 125.282C5.01656 125.282 3.12036 125.602 3.12036 125.997C3.12036 126.393 5.01656 126.713 7.35564 126.713Z" fill="#FF8200"/>
<path opacity="0.1" d="M31.9416 127.61C34.2807 127.61 36.1769 127.29 36.1769 126.895C36.1769 126.5 34.2807 126.179 31.9416 126.179C29.6025 126.179 27.7063 126.5 27.7063 126.895C27.7063 127.29 29.6025 127.61 31.9416 127.61Z" fill="#FF8200"/>
<path d="M159.495 122.831C162.988 122.831 165.819 122.352 165.819 121.761C165.819 121.171 162.988 120.692 159.495 120.692C156.003 120.692 153.171 121.171 153.171 121.761C153.171 122.352 156.003 122.831 159.495 122.831Z" fill="#FFE9D0"/>
<path d="M162.109 120.014C162.398 119.778 162.608 119.461 162.713 119.103C162.79 118.743 162.636 118.309 162.292 118.177C161.905 118.029 161.491 118.298 161.178 118.569C160.865 118.839 160.505 119.147 160.095 119.091C160.306 118.9 160.464 118.657 160.553 118.387C160.642 118.116 160.66 117.827 160.604 117.548C160.586 117.432 160.537 117.324 160.463 117.233C160.247 117.004 159.859 117.101 159.601 117.282C158.783 117.858 158.555 118.968 158.55 119.968C158.468 119.608 158.538 119.232 158.536 118.867C158.534 118.503 158.432 118.081 158.121 117.888C157.928 117.784 157.711 117.733 157.492 117.74C157.124 117.726 156.715 117.762 156.463 118.031C156.149 118.366 156.232 118.926 156.504 119.289C156.776 119.652 157.188 119.888 157.567 120.141C157.872 120.323 158.132 120.57 158.328 120.866C158.351 120.908 158.37 120.952 158.385 120.997H160.689C161.205 120.735 161.682 120.404 162.109 120.014Z" fill="#FFE9D0"/>
<path d="M9.33244 106.827C9.33244 106.827 10.1958 107.956 8.93297 109.658C7.67009 111.359 6.62897 112.803 7.04573 113.866C7.04573 113.866 8.95027 110.699 10.5057 110.653C12.0611 110.607 11.0372 108.731 9.33244 106.827Z" fill="#FFE9D0"/>
<path opacity="0.1" d="M9.33234 106.827C9.40732 106.936 9.46661 107.055 9.50848 107.181C11.0214 108.958 11.8266 110.617 10.3735 110.658C9.0178 110.697 7.38534 113.119 7.00317 113.731C7.01653 113.778 7.03228 113.825 7.05036 113.871C7.05036 113.871 8.95489 110.703 10.5103 110.658C12.0657 110.612 11.0371 108.731 9.33234 106.827Z" fill="black"/>
<path d="M10.938 108.266C10.938 108.664 10.8924 108.987 10.8374 108.987C10.7823 108.987 10.7383 108.672 10.7383 108.266C10.7383 107.861 10.7933 108.056 10.8499 108.056C10.9066 108.056 10.938 107.868 10.938 108.266Z" fill="#FF8200"/>
<path d="M11.4823 108.741C11.1332 108.931 10.8296 109.046 10.8029 108.997C10.7762 108.949 11.0388 108.757 11.3879 108.567C11.7371 108.376 11.5987 108.515 11.6254 108.567C11.6522 108.618 11.8377 108.551 11.4823 108.741Z" fill="#FF8200"/>
<path d="M4.76849 106.827C4.76849 106.827 3.90508 107.956 5.16638 109.658C6.42769 111.359 7.47039 112.803 7.05362 113.866C7.05362 113.866 5.14751 110.699 3.59368 110.653C2.03986 110.607 3.06211 108.731 4.76849 106.827Z" fill="#FFE9D0"/>
<path opacity="0.1" d="M4.76833 106.827C4.69266 106.935 4.63332 107.055 4.59219 107.181C3.07925 108.958 2.27246 110.617 3.7272 110.658C5.0813 110.697 6.71533 113.119 7.09592 113.731C7.08309 113.778 7.06787 113.825 7.05031 113.871C7.05031 113.871 5.1442 110.703 3.59038 110.658C2.03655 110.612 3.06195 108.731 4.76833 106.827Z" fill="black"/>
<path d="M3.16284 108.266C3.16284 108.664 3.20688 108.987 3.26192 108.987C3.31697 108.987 3.361 108.672 3.361 108.266C3.361 107.861 3.30596 108.056 3.25091 108.056C3.19587 108.056 3.16284 107.868 3.16284 108.266Z" fill="#FF8200"/>
<path d="M2.61047 108.741C2.9596 108.931 3.26471 109.046 3.29144 108.997C3.31818 108.949 3.05554 108.757 2.7064 108.567C2.35726 108.376 2.49409 108.515 2.46892 108.567C2.44376 108.618 2.26133 108.551 2.61047 108.741Z" fill="#FF8200"/>
<path d="M3.43799 113.723C3.43799 113.723 5.85365 113.649 6.58339 113.13C7.31312 112.611 10.2997 111.993 10.4805 112.815C10.6614 113.638 14.1103 116.951 11.3833 116.974C8.6562 116.996 5.04686 116.547 4.32027 116.105C3.59369 115.663 3.43799 113.723 3.43799 113.723Z" fill="#8F8F8F"/>
<path opacity="0.2" d="M11.4289 116.693C8.70181 116.715 5.09247 116.266 4.36588 115.824C3.81229 115.488 3.59211 114.279 3.5182 113.72H3.43799C3.43799 113.72 3.59526 115.669 4.31713 116.111C5.039 116.553 8.65306 117.001 11.3801 116.979C12.1665 116.979 12.4385 116.691 12.4244 116.277C12.3143 116.531 12.0155 116.688 11.4289 116.693Z" fill="black"/>
<path d="M64.3721 65.1633C65.2953 65.1114 69.6407 64.7843 72.4007 63.21C72.844 62.9492 73.3448 62.8017 73.8586 62.7806C74.7362 62.7555 75.7459 63.1219 75.0995 65.1727C74.0521 68.5273 67.9704 72.3018 64.196 72.0926C60.5662 71.8913 56.2601 70.4287 53.4167 65.286C53.1443 64.7912 53.0101 64.2322 53.0282 63.6676C53.0613 62.6297 53.4387 61.329 55.3873 62.7791C58.02 64.7371 63.0149 65.1082 64.0167 65.1633C64.1351 65.1696 64.2537 65.1696 64.3721 65.1633Z" fill="#362A29"/>
<path d="M99.2862 65.1633C100.209 65.1114 104.555 64.7843 107.315 63.21C107.758 62.9492 108.259 62.8017 108.773 62.7806C109.65 62.7555 110.66 63.1219 110.014 65.1727C108.966 68.5273 102.885 72.3018 99.11 72.0926C95.4802 71.8913 91.1742 70.4287 88.3308 65.286C88.0583 64.7912 87.9241 64.2322 87.9423 63.6676C87.9753 62.6297 88.3528 61.329 90.3013 62.7791C92.934 64.7371 97.9289 65.1082 98.9307 65.1633C99.0491 65.1696 99.1678 65.1696 99.2862 65.1633Z" fill="#362A29"/>
</g>
<defs>
<clipPath id="clip0_218_4478">
<rect width="173" height="127.61" fill="white"/>
</clipPath>
</defs>
</svg>
