<svg width="24" height="24" viewBox="0 0 24 24" fill="none" xmlns="http://www.w3.org/2000/svg">
<path d="M6.54363 4.99968C6.46352 4.91794 6.36808 4.85278 6.26278 4.80794C6.15748 4.76309 6.04437 4.73944 5.92992 4.73832C5.81547 4.73721 5.70192 4.75866 5.59576 4.80144C5.48961 4.84423 5.39292 4.90751 5.31123 4.98768C4.38717 5.90637 3.65417 6.99895 3.15451 8.20237C2.65485 9.4058 2.39843 10.6962 2.40003 11.9993C2.39853 13.3523 2.67514 14.6912 3.21268 15.9329C3.75021 17.1745 4.53721 18.2925 5.52483 19.2173C5.69106 19.3709 5.91062 19.4538 6.13692 19.4482C6.36321 19.4426 6.57841 19.349 6.73683 19.1873C7.11603 18.8081 7.06923 18.2045 6.70443 17.8553C5.91183 17.0999 5.2811 16.1913 4.85057 15.1846C4.42005 14.1779 4.19872 13.0942 4.20003 11.9993C4.20003 9.78408 5.08923 7.77528 6.53163 6.31368C6.87963 5.95968 6.91563 5.37168 6.54363 4.99968ZM8.65683 7.11528C8.49879 6.95266 8.28273 6.85933 8.056 6.85573C7.82927 6.85213 7.61035 6.93856 7.44723 7.09608C6.79797 7.73682 6.28262 8.50029 5.93116 9.34206C5.5797 10.1838 5.39916 11.0871 5.40003 11.9993C5.39862 12.9638 5.60014 13.9178 5.9915 14.7993C6.38286 15.6809 6.9553 16.4702 7.67163 17.1161C7.83633 17.2616 8.0507 17.3381 8.27032 17.3299C8.48993 17.3216 8.69794 17.2292 8.85123 17.0717C9.24483 16.6781 9.17163 16.0589 8.80203 15.7109C8.2954 15.2346 7.89184 14.6595 7.61629 14.0211C7.34075 13.3827 7.19907 12.6946 7.20003 11.9993C7.20003 10.6193 7.74843 9.36648 8.64003 8.44728C8.98323 8.09448 9.03963 7.49568 8.65683 7.11408V7.11528ZM15.3432 7.11528C15.5013 6.95266 15.7173 6.85933 15.9441 6.85573C16.1708 6.85213 16.3897 6.93856 16.5528 7.09608C17.2021 7.73682 17.7174 8.50029 18.0689 9.34206C18.4204 10.1838 18.6009 11.0871 18.6 11.9993C18.6014 12.9638 18.3999 13.9178 18.0086 14.7993C17.6172 15.6809 17.0448 16.4702 16.3284 17.1161C16.1637 17.2616 15.9494 17.3381 15.7297 17.3299C15.5101 17.3216 15.3021 17.2292 15.1488 17.0717C14.7552 16.6781 14.8284 16.0589 15.198 15.7109C15.7047 15.2346 16.1082 14.6595 16.3838 14.0211C16.6593 13.3827 16.801 12.6946 16.8 11.9993C16.8 10.6193 16.2516 9.36648 15.36 8.44728C15.0168 8.09448 14.9604 7.49568 15.3432 7.11408V7.11528ZM17.4564 5.00088C17.5365 4.91914 17.632 4.85398 17.7373 4.80914C17.8426 4.76429 17.9557 4.74064 18.0701 4.73952C18.1846 4.73841 18.2981 4.75986 18.4043 4.80264C18.5105 4.84543 18.6071 4.90871 18.6888 4.98888C19.6128 5.90743 20.3457 6.99981 20.8453 8.20302C21.345 9.40623 21.6015 10.6964 21.6 11.9993C21.6015 13.3523 21.3249 14.6912 20.7874 15.9329C20.2499 17.1745 19.4629 18.2925 18.4752 19.2173C18.309 19.3709 18.0894 19.4538 17.8631 19.4482C17.6369 19.4426 17.4217 19.349 17.2632 19.1873C16.884 18.8081 16.9308 18.2045 17.2968 17.8553C18.0892 17.0998 18.7197 16.1911 19.15 15.1844C19.5804 14.1778 19.8015 13.0941 19.8 11.9993C19.8 9.78408 18.9108 7.77528 17.4684 6.31368C17.1204 5.95968 17.0844 5.37168 17.4564 4.99968V5.00088ZM12 10.1993C11.5226 10.1993 11.0648 10.3889 10.7272 10.7265C10.3897 11.0641 10.2 11.5219 10.2 11.9993C10.2 12.4767 10.3897 12.9345 10.7272 13.2721C11.0648 13.6096 11.5226 13.7993 12 13.7993C12.4774 13.7993 12.9353 13.6096 13.2728 13.2721C13.6104 12.9345 13.8 12.4767 13.8 11.9993C13.8 11.5219 13.6104 11.0641 13.2728 10.7265C12.9353 10.3889 12.4774 10.1993 12 10.1993Z" fill="black"/>
</svg>
