<svg width="27" height="30" viewBox="0 0 27 30" fill="none" xmlns="http://www.w3.org/2000/svg">
<g clip-path="url(#clip0_641_8642)">
<path d="M19.7112 19.5855C23.0257 17.6341 25.5383 16.1471 25.7549 16.0315C26.4477 15.6364 27.1632 14.5908 25.7549 13.7786C25.3002 13.5232 22.8521 12.0825 19.7112 10.2246L15.3569 14.9398L19.7112 19.5854V19.5855Z" fill="#FFD900"/>
<path d="M15.3568 14.9395L1.49243 29.9223C1.81786 29.9685 2.18525 29.8759 2.61841 29.6206C3.52781 29.0869 13.1683 23.4417 19.711 19.5863L15.3568 14.9395Z" fill="#F43249"/>
<path d="M15.3568 14.9391L19.711 10.2472C19.711 10.2472 3.59363 0.815679 2.61847 0.258927C2.25108 0.0256061 1.83936 -0.0437005 1.47095 0.0256061L15.3568 14.9391Z" fill="#00EE76"/>
<path d="M15.3568 14.9389L1.47095 0.0253906C0.907398 0.165099 0.431152 0.698967 0.431152 1.79079V28.1563C0.431152 29.1556 0.799671 29.8754 1.49249 29.9448L15.3568 14.9389Z" fill="#00D3FF"/>
</g>
<defs>
<clipPath id="clip0_641_8642">
<rect width="26.1404" height="30" fill="white" transform="translate(0.431152)"/>
</clipPath>
</defs>
</svg>
