<svg width="24" height="24" viewBox="0 0 24 24" fill="none" xmlns="http://www.w3.org/2000/svg">
  <path
    d="M22.2858 18.8572C22.2858 19.7665 21.9246 20.6385 21.2816 21.2815C20.6386 21.9245 19.7665 22.2857 18.8572 22.2857H16.2858C16.0585 22.2857 15.8404 22.1954 15.6797 22.0347C15.5189 21.8739 15.4286 21.6559 15.4286 21.4286V14.5714C15.4286 14.3441 15.5189 14.1261 15.6797 13.9653C15.8404 13.8046 16.0585 13.7143 16.2858 13.7143H20.5715V12C20.5715 7.26601 16.7341 3.42858 12.0001 3.42858C7.26607 3.42858 3.42864 7.26601 3.42864 12V13.7143H7.71436C7.94168 13.7143 8.1597 13.8046 8.32045 13.9653C8.48119 14.1261 8.5715 14.3441 8.5715 14.5714V21.4286C8.5715 21.6559 8.48119 21.8739 8.32045 22.0347C8.1597 22.1954 7.94168 22.2857 7.71436 22.2857H5.14293C4.23361 22.2857 3.36154 21.9245 2.71856 21.2815C2.07558 20.6385 1.71436 19.7665 1.71436 18.8572V12C1.71436 6.31972 6.31978 1.71429 12.0001 1.71429C17.6804 1.71429 22.2858 6.31972 22.2858 12V18.8572Z"
    fill="#FF8200" />
</svg>