<svg width="24" height="24" viewBox="0 0 24 24" fill="none" xmlns="http://www.w3.org/2000/svg">
<path d="M3.25 12C3.25 7.1675 7.1675 3.25 12 3.25C16.8325 3.25 20.75 7.1675 20.75 12V14H18.125C17.78 14 17.5 14.28 17.5 14.625V21.375C17.5 21.72 17.78 22 18.125 22H19.125C19.8875 22 20.6188 21.6971 21.1579 21.1579C21.6971 20.6188 22 19.8875 22 19.125V12C22 6.477 17.523 2 12 2C6.477 2 2 6.477 2 12V19.125C2 19.8875 2.3029 20.6188 2.84207 21.1579C3.38124 21.6971 4.1125 22 4.875 22H5.875C6.22 22 6.5 21.72 6.5 21.375V14.625C6.5 14.28 6.22 14 5.875 14H3.25V12ZM18.75 15.25H20.75V19.125C20.75 19.556 20.5788 19.9693 20.274 20.274C19.9693 20.5788 19.556 20.75 19.125 20.75H18.75V15.25ZM3.25 15.25H5.25V20.75H4.875C4.44402 20.75 4.0307 20.5788 3.72595 20.274C3.4212 19.9693 3.25 19.556 3.25 19.125V15.25ZM11.375 11.625V22.375C11.375 22.5408 11.4408 22.6997 11.5581 22.8169C11.6753 22.9342 11.8342 23 12 23C12.1658 23 12.3247 22.9342 12.4419 22.8169C12.5592 22.6997 12.625 22.5408 12.625 22.375V11.625C12.625 11.4592 12.5592 11.3003 12.4419 11.1831C12.3247 11.0658 12.1658 11 12 11C11.8342 11 11.6753 11.0658 11.5581 11.1831C11.4408 11.3003 11.375 11.4592 11.375 11.625V11.625ZM9.125 14C9.47 14 9.75 14.28 9.75 14.625V19.375C9.75 19.5408 9.68415 19.6997 9.56694 19.8169C9.44973 19.9342 9.29076 20 9.125 20C8.95924 20 8.80027 19.9342 8.68306 19.8169C8.56585 19.6997 8.5 19.5408 8.5 19.375V14.625C8.5 14.28 8.78 14 9.125 14ZM15.5 14.625C15.5 14.4592 15.4342 14.3003 15.3169 14.1831C15.1997 14.0658 15.0408 14 14.875 14C14.7092 14 14.5503 14.0658 14.4331 14.1831C14.3158 14.3003 14.25 14.4592 14.25 14.625V19.375C14.25 19.5408 14.3158 19.6997 14.4331 19.8169C14.5503 19.9342 14.7092 20 14.875 20C15.0408 20 15.1997 19.9342 15.3169 19.8169C15.4342 19.6997 15.5 19.5408 15.5 19.375V14.625Z" fill="white"/>
</svg>
