<svg width="24" height="24" viewBox="0 0 24 24" fill="none" xmlns="http://www.w3.org/2000/svg">
    <path
        d="M23.0017 10.7924C23.6664 11.4588 23.6661 12.5429 23.0008 13.2088C23.0007 13.2088 23.0007 13.2088 23.0007 13.2089C23.0006 13.2089 23.0006 13.2089 23.0006 13.209C22.6766 13.5327 22.2489 13.7097 21.7916 13.7097H21.4298H20.9298V14.2097V21.4144C20.9298 22.5638 19.9936 23.5 18.8435 23.5H15.0129C14.9006 23.5 14.8097 23.409 14.8097 23.2969V17.6484C14.8097 16.7217 14.0566 15.9687 13.1298 15.9687H10.8705C9.94372 15.9687 9.19059 16.7217 9.19059 17.6484V23.2969C9.19059 23.409 9.0996 23.5 8.98739 23.5H5.1568C4.00668 23.5 3.07054 22.5638 3.07054 21.4144V14.2097V13.7097H2.57054H2.1803C2.17344 13.7097 2.16693 13.7094 2.16072 13.7088L2.1472 13.7075L2.13362 13.7069C1.70379 13.6884 1.30361 13.5128 0.999521 13.2086L0.999439 13.2085C0.334681 12.5438 0.333429 11.4613 0.996243 10.7947L1.00498 10.7858L1.00593 10.7848L1.00628 10.7845L10.7911 1.00085L10.4383 0.647989L10.7911 1.00085C11.1149 0.677115 11.5426 0.5 12.0001 0.5C12.4577 0.5 12.8853 0.677232 13.209 1.00095L13.209 1.00104L23.0017 10.7924ZM23.0017 10.7924L23.0018 10.7924L23.3539 10.4403L23.0014 10.792C23.0014 10.792 23.0014 10.7921 23.0014 10.7921C23.0015 10.7921 23.0015 10.7921 23.0015 10.7921C23.0015 10.7922 23.0015 10.7922 23.0015 10.7922C23.0016 10.7922 23.0016 10.7922 23.0016 10.7922C23.0016 10.7922 23.0016 10.7923 23.0016 10.7923C23.0017 10.7923 23.0017 10.7923 23.0017 10.7923C23.0017 10.7923 23.0017 10.7924 23.0017 10.7924ZM23.0001 10.7908L23.0001 10.7908L23.0001 10.7907L23.0001 10.7908Z"
        fill="#FF8200" stroke="#FF8200" />
</svg>