<svg width="24" height="25" viewBox="0 0 24 25" fill="none" xmlns="http://www.w3.org/2000/svg">
<path d="M18.9398 17.821L24 22.88L22.3282 24.5518L17.2693 19.4916C15.3869 21.0006 13.0456 21.8213 10.6331 21.8179C4.76361 21.8179 0 17.0543 0 11.1848C0 5.31537 4.76361 0.551758 10.6331 0.551758C16.5025 0.551758 21.2661 5.31537 21.2661 11.1848C21.2696 13.5973 20.4488 15.9387 18.9398 17.821ZM16.5699 16.9444C18.0693 15.4025 18.9066 13.3356 18.9032 11.1848C18.9032 6.61497 15.2017 2.91466 10.6331 2.91466C6.06321 2.91466 2.3629 6.61497 2.3629 11.1848C2.3629 15.7535 6.06321 19.455 10.6331 19.455C12.7838 19.4584 14.8507 18.621 16.3926 17.1216L16.5699 16.9444Z" fill="#6B6A6A"/>
</svg>
