<svg version="1.1" xmlns="http://www.w3.org/2000/svg" xmlns:xlink="http://www.w3.org/1999/xlink" width="512px"
  height="512px" viewBox="0,0,256,256">
  <g stroke="none" stroke-width="1" stroke-linecap="butt" stroke-linejoin="miter" stroke-miterlimit="10"
    stroke-dasharray="" stroke-dashoffset="0" font-family="none" font-weight="none" font-size="none" text-anchor="none"
    style="mix-blend-mode: normal">
    <g transform="scale(0.5,0.5)">
      <path
        d="M40,30c-5.523,0 -10,4.477 -10,10v430c0,0.32259 0.01781,0.64543 0.04883,0.9668c0.01915,0.19923 0.05332,0.39419 0.08398,0.58984c0.02044,0.13033 0.03495,0.26104 0.06055,0.39063c0.03546,0.17957 0.08397,0.35331 0.12891,0.52929c0.03604,0.14148 0.06706,0.28374 0.10938,0.42383c0.05122,0.1691 0.11403,0.33286 0.17383,0.49805c0.05085,0.14093 0.09691,0.28288 0.1543,0.42187c0.06503,0.15711 0.1402,0.30799 0.21289,0.46094c0.0685,0.14452 0.13316,0.28986 0.20898,0.43164c0.07996,0.14928 0.17061,0.29092 0.25781,0.43555c0.07946,0.13195 0.15414,0.26558 0.24023,0.39453c0.10356,0.1551 0.21824,0.30235 0.33008,0.45117c0.08672,0.11536 0.16545,0.23529 0.25781,0.34766c0.20846,0.25389 0.43003,0.49642 0.66211,0.72851c0.23209,0.23211 0.47462,0.45362 0.72852,0.66211c0.11814,0.09711 0.24378,0.18061 0.36523,0.27149c0.14161,0.10591 0.28046,0.21405 0.42773,0.3125c0.12569,0.08404 0.25621,0.15663 0.38477,0.23437c0.15206,0.09203 0.30177,0.18747 0.45898,0.27149c0.13153,0.0702 0.26649,0.12945 0.40039,0.19335c0.16062,0.07685 0.31915,0.15818 0.48438,0.22657c0.1311,0.05412 0.2656,0.09622 0.39844,0.14453c0.17431,0.06358 0.3467,0.12958 0.52539,0.18359c0.13237,0.03994 0.26679,0.06919 0.40039,0.10352c0.18204,0.04686 0.36293,0.0961 0.54883,0.13281c0.15481,0.0306 0.31096,0.04904 0.4668,0.07227c0.16471,0.0245 0.32691,0.05589 0.49414,0.07226c0.3278,0.03231 0.65726,0.04883 0.98633,0.04883h430c5.522,0 10,-4.478 10,-10v-430c0,-5.523 -4.478,-10 -10,-10zM50,50h410v287.39453l-93.27344,-84.79492c-3.947,-3.59 -10.02383,-3.44588 -13.79883,0.32812l-82.92773,82.92774l-47.92969,-47.92774c-1.875,-1.875 -4.41831,-2.92968 -7.07031,-2.92968c-2.652,0 -5.19531,1.05468 -7.07031,2.92968l-157.92969,157.92969zM150,110c-27.57,0 -50,22.43 -50,50c0,27.57 22.43,50 50,50c27.57,0 50,-22.43 50,-50c0,-27.57 -22.43,-50 -50,-50zM150,130c16.542,0 30,13.458 30,30c0,16.542 -13.458,30 -30,30c-16.542,0 -30,-13.458 -30,-30c0,-16.542 13.458,-30 30,-30zM360.32812,273.8125l99.67188,90.60938v95.57812h-70.00195l2.07226,-2.07227l-107.92969,-107.92773zM215,309.14258l150.85742,150.85742h-301.71679z">
      </path>
    </g>
  </g>
</svg>