<svg width="24" height="24" viewBox="0 0 24 24" fill="none" xmlns="http://www.w3.org/2000/svg">
<rect width="24" height="24" rx="2" fill="white" fill-opacity="0.2"/>
<path d="M18.5893 8.2666H5.41066C5.17798 8.2666 4.95482 8.35903 4.79029 8.52357C4.62576 8.6881 4.53333 8.91125 4.53333 9.14393V17.6559C4.53333 17.8886 4.62576 18.1118 4.79029 18.2763C4.95482 18.4408 5.17798 18.5333 5.41066 18.5333H18.5893C18.822 18.5333 19.0452 18.4408 19.2097 18.2763C19.3742 18.1118 19.4667 17.8886 19.4667 17.6559V9.14393C19.4667 8.91125 19.3742 8.6881 19.2097 8.52357C19.0452 8.35903 18.822 8.2666 18.5893 8.2666ZM18.5333 17.5999H5.46666V9.19993H18.5333V17.5999Z" fill="white"/>
<path d="M7.59464 12.6765C7.87154 12.6765 8.14221 12.5944 8.37244 12.4405C8.60267 12.2867 8.78211 12.068 8.88807 11.8122C8.99404 11.5564 9.02176 11.2749 8.96774 11.0033C8.91372 10.7318 8.78038 10.4823 8.58459 10.2865C8.3888 10.0907 8.13934 9.95739 7.86777 9.90337C7.59619 9.84935 7.3147 9.87707 7.05888 9.98303C6.80307 10.089 6.58442 10.2684 6.43058 10.4987C6.27675 10.7289 6.19464 10.9996 6.19464 11.2765C6.19464 11.6478 6.34214 12.0039 6.60469 12.2664C6.86724 12.529 7.22334 12.6765 7.59464 12.6765ZM7.59464 10.5298C7.74306 10.5261 7.88921 10.5667 8.01443 10.6465C8.13965 10.7262 8.23825 10.8415 8.29764 10.9776C8.35702 11.1136 8.3745 11.2643 8.34783 11.4104C8.32116 11.5564 8.25156 11.6912 8.14792 11.7975C8.04428 11.9038 7.9113 11.9768 7.76598 12.0071C7.62065 12.0375 7.46958 12.0238 7.33205 11.9679C7.19452 11.912 7.07679 11.8163 6.99389 11.6932C6.91099 11.57 6.86669 11.4249 6.86664 11.2765C6.86658 11.0816 6.94268 10.8945 7.07869 10.755C7.21471 10.6155 7.39987 10.5347 7.59464 10.5298Z" fill="white"/>
<path d="M7.28661 16.6662L10.0866 13.8662L11.5706 15.3502L10.2546 16.6662H11.1879L14.6693 13.1849L17.5999 16.0922V15.1589L14.8933 12.4662C14.8312 12.4047 14.7474 12.3701 14.6599 12.3701C14.5725 12.3701 14.4887 12.4047 14.4266 12.4662L12.0186 14.8742L10.3059 13.1662C10.2439 13.1047 10.16 13.0701 10.0726 13.0701C9.9852 13.0701 9.90133 13.1047 9.83928 13.1662L6.36261 16.6662H7.28661Z" fill="white"/>
<path d="M17.6653 4.99987C17.6653 4.8761 17.6161 4.7574 17.5286 4.66989C17.4411 4.58237 17.3224 4.5332 17.1986 4.5332H6.93194C6.80817 4.5332 6.68947 4.58237 6.60195 4.66989C6.51444 4.7574 6.46527 4.8761 6.46527 4.99987V5.46654H17.6653V4.99987Z" fill="white"/>
<path d="M18.5893 6.86706C18.5893 6.74329 18.5401 6.62459 18.4526 6.53707C18.3651 6.44956 18.2464 6.40039 18.1226 6.40039H5.98931C5.86554 6.40039 5.74684 6.44956 5.65933 6.53707C5.57181 6.62459 5.52264 6.74329 5.52264 6.86706V7.33372H18.5893V6.86706Z" fill="white"/>
</svg>
