<svg width="24" height="24" viewBox="0 0 24 24" fill="none" xmlns="http://www.w3.org/2000/svg">
<path d="M18.5893 8.26953H5.41066C5.17798 8.26953 4.95482 8.36196 4.79029 8.5265C4.62576 8.69103 4.53333 8.91418 4.53333 9.14686V17.6589C4.53333 17.8915 4.62576 18.1147 4.79029 18.2792C4.95482 18.4438 5.17798 18.5362 5.41066 18.5362H18.5893C18.822 18.5362 19.0452 18.4438 19.2097 18.2792C19.3742 18.1147 19.4667 17.8915 19.4667 17.6589V9.14686C19.4667 8.91418 19.3742 8.69103 19.2097 8.5265C19.0452 8.36196 18.822 8.26953 18.5893 8.26953ZM18.5333 17.6029H5.46666V9.20286H18.5333V17.6029Z" fill="white" fill-opacity="0.8"/>
<path d="M7.59464 12.6789C7.87154 12.6789 8.14221 12.5968 8.37244 12.443C8.60267 12.2891 8.78211 12.0705 8.88807 11.8147C8.99404 11.5588 9.02176 11.2774 8.96774 11.0058C8.91372 10.7342 8.78038 10.4848 8.58459 10.289C8.3888 10.0932 8.13934 9.95983 7.86777 9.90581C7.59619 9.85179 7.3147 9.87951 7.05888 9.98548C6.80307 10.0914 6.58442 10.2709 6.43058 10.5011C6.27675 10.7313 6.19464 11.002 6.19464 11.2789C6.19464 11.6502 6.34214 12.0063 6.60469 12.2689C6.86724 12.5314 7.22334 12.6789 7.59464 12.6789ZM7.59464 10.5322C7.74306 10.5285 7.88921 10.5691 8.01443 10.6489C8.13965 10.7287 8.23825 10.8439 8.29764 10.98C8.35702 11.1161 8.3745 11.2667 8.34783 11.4128C8.32116 11.5588 8.25156 11.6936 8.14792 11.7999C8.04428 11.9062 7.9113 11.9792 7.76598 12.0096C7.62065 12.0399 7.46958 12.0263 7.33205 11.9703C7.19452 11.9144 7.07679 11.8188 6.99389 11.6956C6.91099 11.5724 6.86669 11.4274 6.86664 11.2789C6.86658 11.0841 6.94268 10.8969 7.07869 10.7574C7.21471 10.6179 7.39987 10.5371 7.59464 10.5322Z" fill="white" fill-opacity="0.8"/>
<path d="M7.28661 16.6672L10.0866 13.8672L11.5706 15.3512L10.2546 16.6672H11.1879L14.6693 13.1859L17.5999 16.0932V15.1599L14.8933 12.4672C14.8312 12.4056 14.7474 12.3711 14.6599 12.3711C14.5725 12.3711 14.4887 12.4056 14.4266 12.4672L12.0186 14.8752L10.3059 13.1672C10.2439 13.1056 10.16 13.0711 10.0726 13.0711C9.9852 13.0711 9.90133 13.1056 9.83928 13.1672L6.36261 16.6672H7.28661Z" fill="white" fill-opacity="0.8"/>
<path d="M17.6653 5.00182C17.6653 4.87806 17.6161 4.75936 17.5286 4.67184C17.4411 4.58432 17.3224 4.53516 17.1986 4.53516H6.93194C6.80817 4.53516 6.68947 4.58432 6.60195 4.67184C6.51444 4.75936 6.46527 4.87806 6.46527 5.00182V5.46849H17.6653V5.00182Z" fill="white" fill-opacity="0.8"/>
<path d="M18.5893 6.86901C18.5893 6.74524 18.5401 6.62654 18.4526 6.53903C18.3651 6.45151 18.2464 6.40234 18.1226 6.40234H5.98931C5.86554 6.40234 5.74684 6.45151 5.65933 6.53903C5.57181 6.62654 5.52264 6.74524 5.52264 6.86901V7.33568H18.5893V6.86901Z" fill="white" fill-opacity="0.8"/>
</svg>
