<svg width="20" height="21" viewBox="0 0 20 21" fill="none" xmlns="http://www.w3.org/2000/svg">
<path d="M18 0.0820312H6C4.9 0.0820312 4 1.00343 4 2.12957V14.4148C4 15.541 4.9 16.4624 6 16.4624H18C19.1 16.4624 20 15.541 20 14.4148V2.12957C20 1.00343 19.1 0.0820312 18 0.0820312ZM18.5 14.9267H12H5.5V8.2722V1.61769H12H18.5V8.78409V14.9267ZM10.5 13.3911C11.163 13.3911 11.7989 13.1214 12.2678 12.6414C12.7366 12.1614 13 11.5104 13 10.8316V5.20089H16V3.15334H12V8.79432C11.58 8.46672 11.07 8.2722 10.5 8.2722C9.83696 8.2722 9.20107 8.54185 8.73223 9.02184C8.26339 9.50183 8 10.1528 8 10.8316C8 11.5104 8.26339 12.1614 8.73223 12.6414C9.20107 13.1214 9.83696 13.3911 10.5 13.3911ZM1.5 4.17712H0V18.5099C0 19.6361 0.9 20.5575 2 20.5575H16V19.0218H8.73223H1.5V11.3435V4.17712Z" fill="white" fill-opacity="0.6"/>
</svg>
