<svg width="21" height="21" viewBox="0 0 21 21" fill="none" xmlns="http://www.w3.org/2000/svg">
<path d="M2.3258 20.5C1.84961 20.5 1.44286 20.3381 1.10556 20.0143C0.76826 19.6905 0.599609 19.3 0.599609 18.8429V2.15714C0.599609 1.7 0.76826 1.30952 1.10556 0.985714C1.44286 0.661905 1.84961 0.5 2.3258 0.5H10.5401V1.78571H2.3258C2.22659 1.78571 2.13731 1.82381 2.05794 1.9C1.97858 1.97619 1.9389 2.0619 1.9389 2.15714V18.8429C1.9389 18.9381 1.97858 19.0238 2.05794 19.1C2.13731 19.1762 2.22659 19.2143 2.3258 19.2143H10.5401V20.5H2.3258ZM16.0758 14.8429L15.0937 13.9286L18.0103 11.1571H7.50437V9.84286H17.9806L15.0639 7.07143L16.046 6.12857L20.5996 10.5286L16.0758 14.8429Z" fill="white" fill-opacity="0.6"/>
</svg>
