<svg width="32" height="32" viewBox="0 0 32 32" fill="none" xmlns="http://www.w3.org/2000/svg">
<path d="M12.5373 21.3693L13.3907 21.2226C13.556 21.1933 13.7533 21.1506 13.9813 21.092C16.8 20.3853 18.6667 18.2786 18.6667 16.0013C18.6667 13.1546 15.7653 10.668 12 10.668C8.23467 10.668 5.33334 13.1546 5.33334 16.0013C5.33334 17.6253 6.26934 19.172 7.908 20.2013L7.956 20.228L9.33334 20.988V24.672L12.5373 21.3693V21.3693ZM13.8467 23.8493L8.95734 28.8893C8.77256 29.0799 8.53509 29.211 8.27535 29.2658C8.0156 29.3207 7.74541 29.2967 7.49937 29.197C7.25332 29.0973 7.04263 28.9265 6.89429 28.7063C6.74594 28.4862 6.66668 28.2268 6.66667 27.9613V22.5613C6.60711 22.5291 6.54842 22.4953 6.49067 22.46C4.17201 21.004 2.66667 18.6533 2.66667 16.0013C2.66667 11.5826 6.84534 8.0013 12 8.0013C17.1547 8.0013 21.3333 11.5826 21.3333 16.0013C21.3333 19.636 18.5053 22.7053 14.632 23.6786C14.3724 23.7452 14.1105 23.8021 13.8467 23.8493V23.8493ZM11.9147 6.66797C13.528 4.2773 16.5467 2.66797 20 2.66797C25.1547 2.66797 29.3333 6.2493 29.3333 10.668C29.3333 13.32 27.8267 15.6706 25.5093 17.1266C25.4516 17.162 25.3929 17.1958 25.3333 17.228V22.628C25.3333 22.8934 25.2541 23.1529 25.1057 23.373C24.9574 23.5932 24.7467 23.764 24.5006 23.8637C24.2546 23.9634 23.9844 23.9873 23.7247 23.9325C23.4649 23.8777 23.2274 23.7466 23.0427 23.556L20.7293 21.172L22.12 18.7746L22.6667 19.3386V15.6546L24.044 14.8946L24.092 14.868C25.732 13.8386 26.6667 12.292 26.6667 10.668C26.6667 7.8213 23.7653 5.33464 20 5.33464C18.2933 5.33464 16.7653 5.8453 15.604 6.66797H11.9147Z" fill="white"/>
</svg>
