<svg width="35" height="33" viewBox="0 0 35 33" fill="none" xmlns="http://www.w3.org/2000/svg">
<path d="M32.9601 1L19.8201 10.72L22.2701 4.99L32.9601 1Z" fill="#E17726" stroke="#E17726" stroke-width="0.25" stroke-linecap="round" stroke-linejoin="round"/>
<path d="M2.66002 1L15.68 10.8L13.35 5L2.66002 1ZM28.23 23.53L24.73 28.87L32.22 30.93L34.36 23.65L28.23 23.53ZM1.27002 23.65L3.40002 30.93L10.87 28.87L7.39002 23.53L1.27002 23.65Z" fill="#E27625" stroke="#E27625" stroke-width="0.25" stroke-linecap="round" stroke-linejoin="round"/>
<path d="M10.4701 14.5099L8.39014 17.6499L15.7901 17.9899L15.5501 10.0199L10.4701 14.5199V14.5099ZM25.1501 14.5199L19.9901 9.91992L19.8201 17.9899L27.2201 17.6499L25.1501 14.5199ZM10.8701 28.8699L15.3601 26.7099L11.5001 23.7099L10.8701 28.8699ZM20.2701 26.6999L24.7301 28.8699L24.1301 23.6999L20.2701 26.6999Z" fill="#E27625" stroke="#E27625" stroke-width="0.25" stroke-linecap="round" stroke-linejoin="round"/>
<path d="M24.7301 28.8709L20.2701 26.7109L20.6301 29.6109L20.5901 30.8409L24.7301 28.8709ZM10.8701 28.8709L15.0301 30.8409L15.0001 29.6109L15.3601 26.7109L10.8701 28.8709Z" fill="#D5BFB2" stroke="#D5BFB2" stroke-width="0.25" stroke-linecap="round" stroke-linejoin="round"/>
<path d="M15.0999 21.7802L11.3999 20.7002L14.0199 19.5002L15.1099 21.7802H15.0999ZM20.5099 21.7802L21.6099 19.4902L24.2399 20.6902L20.5099 21.7902V21.7802Z" fill="#233447" stroke="#233447" stroke-width="0.25" stroke-linecap="round" stroke-linejoin="round"/>
<path d="M10.8701 28.8704L11.5201 23.5304L7.39014 23.6504L10.8701 28.8704ZM24.1001 23.5304L24.7301 28.8704L28.2301 23.6504L24.1001 23.5304ZM27.2301 17.6504L19.8301 17.9904L20.5101 21.7904L21.6101 19.4904L24.2401 20.6904L27.2301 17.6504ZM11.4001 20.7004L14.0201 19.5004L15.1101 21.7804L15.8001 17.9804L8.40014 17.6504L11.4001 20.7004Z" fill="#CC6228" stroke="#CC6228" stroke-width="0.25" stroke-linecap="round" stroke-linejoin="round"/>
<path d="M8.3999 17.6504L11.4999 23.7004L11.3999 20.7004L8.3999 17.6504ZM24.2399 20.7004L24.1199 23.7004L27.2199 17.6504L24.2399 20.7004ZM15.7999 17.9904L15.0999 21.7904L15.9799 26.2704L16.1799 20.3604L15.7999 17.9904ZM19.8199 17.9904L19.4599 20.3504L19.6399 26.2704L20.5099 21.7804L19.8199 17.9804V17.9904Z" fill="#E27525" stroke="#E27525" stroke-width="0.25" stroke-linecap="round" stroke-linejoin="round"/>
<path d="M20.5101 21.7792L19.6401 26.2692L20.2701 26.7092L24.1201 23.7092L24.2401 20.6992L20.5101 21.7792ZM11.4001 20.6992L11.5001 23.6992L15.3601 26.6992L15.9801 26.2692L15.1101 21.7792L11.3901 20.6992H11.4001Z" fill="#F5841F" stroke="#F5841F" stroke-width="0.25" stroke-linecap="round" stroke-linejoin="round"/>
<path d="M20.6001 30.8391L20.6301 29.6091L20.2901 29.3291H15.3301L15.0001 29.6091L15.0301 30.8391L10.8701 28.8691L12.3301 30.0691L15.2801 32.0991H20.3301L23.2901 30.0591L24.7301 28.8691L20.5901 30.8391H20.6001Z" fill="#C0AC9D" stroke="#C0AC9D" stroke-width="0.25" stroke-linecap="round" stroke-linejoin="round"/>
<path d="M20.27 26.6995L19.64 26.2695H15.98L15.36 26.7095L15 29.6095L15.33 29.3295H20.29L20.63 29.6095L20.27 26.7095V26.6995Z" fill="#161616" stroke="#161616" stroke-width="0.25" stroke-linecap="round" stroke-linejoin="round"/>
<path d="M33.52 11.35L34.62 6L32.96 1L20.26 10.4L25.15 14.51L32.05 16.52L33.57 14.75L32.91 14.27L33.96 13.31L33.16 12.69L34.21 11.89L33.51 11.35H33.52ZM1 5.99L2.12 11.35L1.4 11.88L2.47 12.68L1.67 13.31L2.71 14.27L2.05 14.75L3.57 16.52L10.47 14.52L15.36 10.39L2.66 1L1 5.99Z" fill="#763E1A" stroke="#763E1A" stroke-width="0.25" stroke-linecap="round" stroke-linejoin="round"/>
<path d="M32.05 16.5202L25.15 14.5202L27.23 17.6502L24.13 23.7002L28.23 23.6502H34.36L32.05 16.5202ZM10.47 14.5102L3.57002 16.5202L1.27002 23.6502H7.40002L11.5 23.7002L8.40002 17.6502L10.48 14.5102H10.47ZM19.82 17.9902L20.27 10.3902L22.27 4.99023H13.35L15.35 10.3902L15.8 17.9902L15.97 20.3702V26.2702H19.64L19.66 20.3702L19.82 17.9902Z" fill="#F5841F" stroke="#F5841F" stroke-width="0.25" stroke-linecap="round" stroke-linejoin="round"/>
</svg>
