<svg width="20" height="20" viewBox="0 0 20 20" fill="none" xmlns="http://www.w3.org/2000/svg">
<path d="M9.99984 13.3326C11.8382 13.3326 13.3332 11.8376 13.3332 9.99927V4.99927C13.3332 3.15177 11.8457 1.64844 10.0173 1.64844C9.95868 1.64879 9.90026 1.65578 9.84317 1.66927C8.98755 1.71075 8.18061 2.07957 7.58932 2.6994C6.99803 3.31923 6.66764 4.14264 6.6665 4.99927V9.99927C6.6665 11.8376 8.1615 13.3326 9.99984 13.3326Z" fill="#424242"/>
<path d="M9.16658 16.6092V18.3333H10.8333V16.6092C14.1158 16.1967 16.6666 13.3942 16.6666 10H14.9999C14.9999 12.7575 12.7574 15 9.99992 15C7.24242 15 4.99992 12.7575 4.99992 10H3.33325C3.33325 13.3933 5.88409 16.1967 9.16658 16.6092Z" fill="#424242"/>
</svg>
