<svg width="23" height="22" viewBox="0 0 23 22" fill="none" xmlns="http://www.w3.org/2000/svg">
<path d="M21.2075 9.85489V19.6246C21.2075 20.0926 21.0456 20.4924 20.7218 20.8239C20.398 21.1554 20.0075 21.3211 19.5504 21.3211H2.83609C2.37895 21.3211 1.98847 21.1554 1.66466 20.8239C1.34085 20.4924 1.17895 20.0926 1.17895 19.6246V9.85489C0.645614 9.40638 0.293233 8.86037 0.121804 8.21686C-0.0496241 7.57334 -0.0401002 6.92008 0.150376 6.25706L1.3218 2.42524C1.47419 1.91823 1.73133 1.52822 2.09323 1.25521C2.45514 0.982206 2.88371 0.845703 3.37895 0.845703H18.9218C19.4361 0.845703 19.8789 0.982206 20.2504 1.25521C20.6218 1.52822 20.8837 1.90847 21.0361 2.39598L22.2647 6.25706C22.4551 6.92008 22.4599 7.57822 22.2789 8.23148C22.098 8.88474 21.7409 9.42588 21.2075 9.85489ZM13.7504 9.24063C14.417 9.24063 14.9456 9.04075 15.3361 8.64099C15.7266 8.24123 15.8932 7.78785 15.8361 7.28084L15.0647 2.16198H11.8647V7.16383C11.8647 7.70984 12.0456 8.19248 12.4075 8.61174C12.7694 9.031 13.217 9.24063 13.7504 9.24063ZM8.46466 9.24063C9.05514 9.24063 9.55037 9.03587 9.95037 8.62636C10.3504 8.21685 10.5504 7.72934 10.5504 7.16383V2.16198H7.35038L6.57895 7.33934C6.5218 7.78785 6.67419 8.21685 7.03609 8.62636C7.398 9.03587 7.87419 9.24063 8.46466 9.24063ZM3.29323 9.24063C3.80752 9.24063 4.24561 9.06512 4.60752 8.71412C4.96942 8.36311 5.17895 7.9341 5.23609 7.42709L6.00752 2.16198H3.1218C3.00752 2.16198 2.90752 2.19123 2.8218 2.24973C2.73609 2.30823 2.68371 2.39599 2.66466 2.51299L1.43609 6.57882C1.22657 7.22233 1.30752 7.82685 1.67895 8.39236C2.05038 8.95787 2.58847 9.24063 3.29323 9.24063ZM19.0932 9.24063C19.7409 9.24063 20.2694 8.9725 20.6789 8.43623C21.0885 7.89997 21.1885 7.28084 20.9789 6.57882L19.7218 2.48374C19.7028 2.36673 19.6551 2.28386 19.5789 2.23511C19.5028 2.18636 19.398 2.16198 19.2647 2.16198H16.4075L17.1504 7.42709C17.2266 7.9341 17.4456 8.36311 17.8075 8.71412C18.1694 9.06512 18.598 9.24063 19.0932 9.24063ZM2.83609 20.0048H19.5504C19.6456 20.0048 19.7313 19.9707 19.8075 19.9025C19.8837 19.8342 19.9218 19.7416 19.9218 19.6246V10.4984C19.8647 10.5374 19.7551 10.5618 19.5932 10.5715C19.4313 10.5813 19.2647 10.5862 19.0932 10.5862C18.598 10.5862 18.1409 10.4789 17.7218 10.2644C17.3028 10.0499 16.9028 9.71839 16.5218 9.26988C16.217 9.65988 15.8409 9.97677 15.3932 10.2205C14.9456 10.4643 14.417 10.5862 13.8075 10.5862C13.2742 10.5862 12.8075 10.4887 12.4075 10.2936C12.0075 10.0986 11.6075 9.79639 11.2075 9.38688C10.8837 9.77689 10.4932 10.0743 10.0361 10.279C9.57895 10.4838 9.10276 10.5862 8.60752 10.5862C8.05514 10.5862 7.55038 10.4838 7.09323 10.279C6.63609 10.0743 6.24561 9.73789 5.9218 9.26988C5.40752 9.75739 4.92657 10.0986 4.47895 10.2936C4.03133 10.4887 3.63609 10.5862 3.29323 10.5862C3.14085 10.5862 2.98847 10.5813 2.83609 10.5715C2.68371 10.5618 2.5599 10.5374 2.46466 10.4984V19.6246C2.46466 19.7416 2.50276 19.8342 2.57895 19.9025C2.65514 19.9707 2.74085 20.0048 2.83609 20.0048Z" fill="white" fill-opacity="0.6"/>
</svg>
