<svg width="20" height="20" viewBox="0 0 20 20" fill="none" xmlns="http://www.w3.org/2000/svg">
<path d="M2.5 3.9612C2.5 2.78787 3.815 2.09454 4.78333 2.75787L13.5317 8.75287C13.7264 8.88633 13.8858 9.06505 13.9962 9.27369C14.1066 9.48232 14.1647 9.71464 14.1655 9.95069C14.1663 10.1867 14.1098 10.4194 14.0009 10.6288C13.8919 10.8382 13.7338 11.0181 13.54 11.1529L4.79083 17.2379C3.825 17.9104 2.5 17.217 2.5 16.0404V3.9612ZM4.07583 3.78954C4.04456 3.7684 4.00814 3.75616 3.97045 3.75411C3.93277 3.75207 3.89523 3.7603 3.86186 3.77793C3.82849 3.79555 3.80053 3.82191 3.78098 3.8542C3.76142 3.88648 3.751 3.92346 3.75083 3.9612V16.0404C3.75083 16.2087 3.93917 16.307 4.0775 16.2112L12.8258 10.127C12.8536 10.1078 12.8763 10.0821 12.892 10.0522C12.9077 10.0222 12.9158 9.98894 12.9157 9.95515C12.9156 9.92136 12.9073 9.8881 12.8915 9.85823C12.8757 9.82836 12.8529 9.80278 12.825 9.7837L4.07583 3.78954ZM17.5 3.12537C17.5 2.95961 17.4342 2.80064 17.3169 2.68343C17.1997 2.56622 17.0408 2.50037 16.875 2.50037C16.7092 2.50037 16.5503 2.56622 16.4331 2.68343C16.3158 2.80064 16.25 2.95961 16.25 3.12537V16.8754C16.25 17.0411 16.3158 17.2001 16.4331 17.3173C16.5503 17.4345 16.7092 17.5004 16.875 17.5004C17.0408 17.5004 17.1997 17.4345 17.3169 17.3173C17.4342 17.2001 17.5 17.0411 17.5 16.8754V3.12537Z" fill="white"/>
</svg>
