<svg width="22" height="22" viewBox="0 0 22 22" fill="none" xmlns="http://www.w3.org/2000/svg">
    <path
        d="M1.6572 21.5C1.49729 21.4997 1.33918 21.4662 1.19294 21.4015C1.04669 21.3368 0.915503 21.2424 0.807721 21.1242C0.697989 21.0071 0.614257 20.8681 0.562014 20.7163C0.509772 20.5646 0.4902 20.4035 0.504581 20.2436L0.786973 17.1385L13.8324 4.09767L17.9092 8.17335L4.86726 21.213L1.76209 21.4954C1.72722 21.4986 1.69222 21.5001 1.6572 21.5ZM18.723 7.35844L14.6473 3.28277L17.092 0.838049C17.199 0.730883 17.3262 0.645866 17.4661 0.587861C17.606 0.529856 17.756 0.5 17.9075 0.5C18.059 0.5 18.2089 0.529856 18.3489 0.587861C18.4888 0.645866 18.6159 0.730883 18.723 0.838049L21.1677 3.28277C21.2748 3.38981 21.3599 3.51693 21.4179 3.65686C21.4759 3.79679 21.5057 3.94677 21.5057 4.09825C21.5057 4.24972 21.4759 4.39971 21.4179 4.53963C21.3599 4.67956 21.2748 4.80668 21.1677 4.91373L18.7241 7.35729L18.723 7.35844Z"
        fill="black" />
</svg>