<svg width="84" height="84" viewBox="0 0 84 84" fill="none" xmlns="http://www.w3.org/2000/svg">
<path d="M41.9995 77C22.669 77 6.99954 61.3305 6.99954 42C6.99954 22.6695 22.669 7 41.9995 7C61.33 7 76.9995 22.6695 76.9995 42C76.9995 61.3305 61.33 77 41.9995 77ZM41.9995 70C49.4256 70 56.5475 67.05 61.7985 61.799C67.0496 56.548 69.9995 49.4261 69.9995 42C69.9995 34.5739 67.0496 27.452 61.7985 22.201C56.5475 16.95 49.4256 14 41.9995 14C34.5735 14 27.4516 16.95 22.2006 22.201C16.9495 27.452 13.9995 34.5739 13.9995 42C13.9995 49.4261 16.9495 56.548 22.2006 61.799C27.4516 67.05 34.5735 70 41.9995 70ZM37.1765 29.4525L54.253 40.8345C54.4451 40.9623 54.6026 41.1356 54.7115 41.3389C54.8204 41.5422 54.8774 41.7693 54.8774 42C54.8774 42.2307 54.8204 42.4578 54.7115 42.6611C54.6026 42.8644 54.4451 43.0377 54.253 43.1655L37.173 54.5475C36.9624 54.6871 36.718 54.7671 36.4656 54.779C36.2132 54.791 35.9623 54.7343 35.7395 54.6152C35.5166 54.4961 35.3302 54.3189 35.1999 54.1024C35.0697 53.8859 35.0004 53.6382 34.9995 53.3855V30.6145C35 30.3613 35.0692 30.1129 35.1996 29.8959C35.33 29.6788 35.5169 29.5013 35.7403 29.382C35.9637 29.2628 36.2152 29.2064 36.4682 29.2188C36.7211 29.2312 36.9659 29.312 37.1765 29.4525Z" fill="white" fill-opacity="0.8"/>
</svg>
