<svg width="20" height="20" viewBox="0 0 20 20" fill="none" xmlns="http://www.w3.org/2000/svg">
<path d="M17.5 3.9612C17.5 2.78787 16.185 2.09454 15.2167 2.75787L6.46833 8.75287C6.27364 8.88633 6.11424 9.06505 6.00384 9.27369C5.89345 9.48232 5.83534 9.71464 5.83452 9.95069C5.8337 10.1867 5.89019 10.4194 5.99914 10.6288C6.10809 10.8382 6.26624 11.0181 6.46 11.1529L15.2092 17.2379C16.175 17.9104 17.5 17.217 17.5 16.0404V3.9612ZM15.9242 3.78954C15.9554 3.7684 15.9919 3.75616 16.0295 3.75411C16.0672 3.75207 16.1048 3.7603 16.1381 3.77793C16.1715 3.79555 16.1995 3.82191 16.219 3.8542C16.2386 3.88648 16.249 3.92346 16.2492 3.9612V16.0404C16.2492 16.2087 16.0608 16.307 15.9225 16.2112L7.17417 10.127C7.14637 10.1078 7.12366 10.0821 7.108 10.0522C7.09235 10.0222 7.08421 9.98894 7.08429 9.95515C7.08437 9.92136 7.09267 9.8881 7.10847 9.85823C7.12428 9.82836 7.14711 9.80278 7.175 9.7837L15.9242 3.78954ZM2.5 3.12537C2.5 2.95961 2.56585 2.80064 2.68306 2.68343C2.80027 2.56622 2.95924 2.50037 3.125 2.50037C3.29076 2.50037 3.44973 2.56622 3.56694 2.68343C3.68415 2.80064 3.75 2.95961 3.75 3.12537V16.8754C3.75 17.0411 3.68415 17.2001 3.56694 17.3173C3.44973 17.4345 3.29076 17.5004 3.125 17.5004C2.95924 17.5004 2.80027 17.4345 2.68306 17.3173C2.56585 17.2001 2.5 17.0411 2.5 16.8754V3.12537Z" fill="white"/>
</svg>
