<svg width="19" height="18" viewBox="0 0 19 18" fill="none" xmlns="http://www.w3.org/2000/svg">
<path d="M9.5 7.95429C8.34 7.95429 7.385 7.58148 6.635 6.83587C5.885 6.09026 5.51 5.14084 5.51 3.98762C5.51 2.83441 5.885 1.88996 6.635 1.15429C7.385 0.418617 8.34 0.0507812 9.5 0.0507812C10.66 0.0507812 11.615 0.418617 12.365 1.15429C13.115 1.88996 13.49 2.83441 13.49 3.98762C13.49 5.14084 13.115 6.09026 12.365 6.83587C11.615 7.58148 10.66 7.95429 9.5 7.95429ZM0.5 17.0508V14.7841C0.5 14.1479 0.67 13.5911 1.01 13.1139C1.35 12.6367 1.79 12.2689 2.33 12.0104C3.61 11.4537 4.835 11.0362 6.005 10.7578C7.175 10.4794 8.34 10.3403 9.5 10.3403C10.66 10.3403 11.825 10.4844 12.995 10.7727C14.165 11.061 15.38 11.4835 16.64 12.0403C17.2 12.2987 17.65 12.6616 17.99 13.1289C18.33 13.5961 18.5 14.1479 18.5 14.7841V17.0508H0.5ZM1.85 15.7087H17.15V14.7841C17.15 14.4859 17.05 14.1926 16.85 13.9043C16.65 13.616 16.39 13.3923 16.07 13.2332C14.89 12.6566 13.775 12.254 12.725 12.0253C11.675 11.7967 10.6 11.6824 9.5 11.6824C8.4 11.6824 7.315 11.7967 6.245 12.0253C5.175 12.254 4.06 12.6566 2.9 13.2332C2.6 13.3923 2.35 13.616 2.15 13.9043C1.95 14.1926 1.85 14.4859 1.85 14.7841V15.7087ZM9.5 6.61219C10.24 6.61219 10.86 6.36365 11.36 5.86657C11.86 5.3695 12.11 4.74318 12.11 3.98762C12.11 3.25195 11.86 2.63558 11.36 2.1385C10.86 1.64142 10.24 1.39289 9.5 1.39289C8.76 1.39289 8.14 1.64142 7.64 2.1385C7.14 2.63558 6.89 3.25195 6.89 3.98762C6.89 4.74318 7.14 5.3695 7.64 5.86657C8.14 6.36365 8.76 6.61219 9.5 6.61219Z" fill="white" fill-opacity="0.6"/>
</svg>
