<svg width="24" height="22" viewBox="0 0 24 22" fill="none" xmlns="http://www.w3.org/2000/svg">
    <path
        d="M21.489 2.46327L21.4886 2.46288C20.8624 1.84904 20.1241 1.36124 19.3138 1.02599L19.3132 1.02572C18.4728 0.676615 17.5714 0.497924 16.6614 0.500018L16.6602 0.500021C15.3821 0.50002 14.136 0.849967 13.0535 1.51032L13.0535 1.51033C12.7945 1.66831 12.5489 1.84159 12.3163 2.03019L12.0014 2.28567L11.6864 2.03019C11.4539 1.84159 11.2082 1.66831 10.9492 1.51033L10.9492 1.51032C9.86676 0.849967 8.62066 0.50002 7.34251 0.50002C6.42124 0.50002 5.53083 0.676264 4.68954 1.02572L4.689 1.02595C3.87583 1.36261 3.14345 1.84652 2.514 2.46303L2.51332 2.46369C1.88784 3.07397 1.38818 3.80105 1.04268 4.60373L21.489 2.46327ZM21.489 2.46327C22.1139 3.07443 22.6136 3.80156 22.9602 4.60395C23.3195 5.43896 23.5026 6.32406 23.5 7.23554V7.23696C23.5 8.09361 23.3251 8.99713 22.969 9.92813L22.9686 9.92926M21.489 2.46327L22.9686 9.92926M5.96203 16.479L5.96209 16.4791C7.2338 17.6535 8.5013 18.648 9.46519 19.3576C9.94675 19.7121 10.3515 19.9948 10.6419 20.1925C10.7871 20.2913 10.9035 20.3688 10.9865 20.4234C11.0279 20.4506 11.0609 20.472 11.0848 20.4874L11.1133 20.5057L11.1216 20.511C11.1236 20.5122 11.1244 20.5127 11.1244 20.5127L11.1323 20.5176L11.1323 20.5177L11.7897 20.9393C11.7898 20.9394 11.79 20.9395 11.7901 20.9395C11.9176 21.0207 12.0824 21.0207 12.2099 20.9395C12.21 20.9395 12.2101 20.9394 12.2102 20.9393L12.8677 20.5177L12.8678 20.5176C12.9662 20.4545 15.4884 18.8309 18.0379 16.479C19.573 15.0618 20.7976 13.6743 21.6816 12.3565L5.96203 16.479ZM5.96203 16.479C4.42696 15.0618 3.20237 13.6743 2.3184 12.3565M5.96203 16.479L2.3184 12.3565M22.9686 9.92926C22.6734 10.7066 22.24 11.5229 21.6817 12.3563L22.9686 9.92926ZM2.3184 12.3565C1.76073 11.5241 1.32941 10.7072 1.03097 9.92813L2.3184 12.3565ZM0.5 7.23696C0.5 6.32445 0.683311 5.43881 1.04266 4.60376L1.03087 9.92788C0.674886 8.99696 0.5 8.09353 0.5 7.23696Z"
        fill="white" stroke="white" />
</svg>