<svg width="20" height="20" viewBox="0 0 20 20" fill="none" xmlns="http://www.w3.org/2000/svg">
<path d="M15.8451 2.58323C15.9119 2.62792 15.9667 2.68836 16.0046 2.75923C16.0425 2.8301 16.0624 2.90921 16.0625 2.98958V10.3333C16.0625 10.4311 16.0332 10.5266 15.9784 10.6076C15.9236 10.6886 15.8458 10.7513 15.755 10.7877L15.5729 10.3333L15.755 10.7877L15.7521 10.7886L15.7462 10.7916L15.7237 10.8004C15.595 10.8516 15.4654 10.9005 15.335 10.9473C15.0765 11.0403 14.7171 11.1656 14.3098 11.29C13.5108 11.5367 12.4699 11.8021 11.6562 11.8021C10.8269 11.8021 10.1405 11.5279 9.54319 11.288L9.51577 11.2782C8.89498 11.0285 8.36623 10.8229 7.73956 10.8229C7.05415 10.8229 6.13569 11.0481 5.35333 11.29C5.00304 11.3991 4.65595 11.5183 4.31248 11.6474V17.6771C4.31248 17.8069 4.2609 17.9315 4.16908 18.0233C4.07727 18.1151 3.95274 18.1667 3.8229 18.1667C3.69305 18.1667 3.56852 18.1151 3.47671 18.0233C3.38489 17.9315 3.33331 17.8069 3.33331 17.6771V2.98958C3.33331 2.85974 3.38489 2.73521 3.47671 2.6434C3.56852 2.55158 3.69305 2.5 3.8229 2.5C3.95274 2.5 4.07727 2.55158 4.16908 2.6434C4.2609 2.73521 4.31248 2.85974 4.31248 2.98958V3.26571C4.53377 3.18835 4.79815 3.09925 5.08602 3.01112C5.88502 2.76633 6.92685 2.5 7.73956 2.5C8.56206 2.5 9.23181 2.77123 9.81638 3.00819L9.85848 3.02581C10.4675 3.27158 10.9982 3.47917 11.6562 3.47917C12.3416 3.47917 13.2601 3.25396 14.0425 3.0121C14.4883 2.87288 14.9289 2.71741 15.3634 2.54602L15.382 2.53917L15.3859 2.53721H15.3869L15.8451 2.58323ZM15.0833 3.69556C14.8679 3.77194 14.6133 3.85908 14.3333 3.94525C13.5401 4.192 12.5003 4.45735 11.6562 4.45735C10.7887 4.45735 10.0974 4.17731 9.49913 3.93448L9.49129 3.93154C8.87735 3.68479 8.36525 3.47917 7.73956 3.47917C7.0845 3.47917 6.16702 3.7034 5.37488 3.94721C5.01759 4.05745 4.66333 4.17727 4.31248 4.30656V10.6055C4.5279 10.5292 4.78248 10.442 5.06252 10.3559C5.85565 10.1081 6.89552 9.84375 7.73956 9.84375C8.56892 9.84375 9.25531 10.1179 9.8526 10.3578L9.88002 10.3676C10.5008 10.6173 11.0296 10.8229 11.6562 10.8229C12.3103 10.8229 13.2288 10.5987 14.0209 10.3549C14.3782 10.2446 14.7325 10.1248 15.0833 9.99552V3.69654V3.69556Z" fill="white"/>
</svg>
