<svg width="20" height="20" viewBox="0 0 20 20" fill="none" xmlns="http://www.w3.org/2000/svg">
<path d="M12.3566 6.4644L7.64325 11.1786C7.56365 11.2554 7.50017 11.3474 7.4565 11.4491C7.41282 11.5507 7.38983 11.6601 7.38887 11.7707C7.38791 11.8814 7.40899 11.9911 7.4509 12.0935C7.4928 12.1959 7.55467 12.289 7.63292 12.3672C7.71116 12.4455 7.8042 12.5073 7.90662 12.5492C8.00903 12.5912 8.11877 12.6122 8.22941 12.6113C8.34006 12.6103 8.44941 12.5873 8.55108 12.5436C8.65275 12.5 8.74471 12.4365 8.82158 12.3569L13.5357 7.64356C14.0046 7.17468 14.268 6.53875 14.268 5.87565C14.268 5.21255 14.0046 4.57661 13.5357 4.10773C13.0669 3.63885 12.4309 3.37544 11.7678 3.37544C11.1047 3.37544 10.4688 3.63885 9.99991 4.10773L5.28575 8.8219C4.89081 9.20701 4.57627 9.6667 4.36038 10.1743C4.14448 10.6819 4.03153 11.2274 4.02808 11.779C4.02462 12.3306 4.13073 12.8774 4.34024 13.3877C4.54976 13.8979 4.85851 14.3615 5.24859 14.7516C5.63867 15.1416 6.10232 15.4503 6.61263 15.6597C7.12293 15.8692 7.66975 15.9752 8.22136 15.9717C8.77297 15.9681 9.31838 15.8551 9.82596 15.6391C10.3335 15.4232 10.7932 15.1086 11.1782 14.7136L15.8924 10.0002L17.0707 11.1786L12.3566 15.8927C11.8149 16.4344 11.1718 16.8641 10.464 17.1573C9.75625 17.4505 8.99766 17.6014 8.23158 17.6014C7.4655 17.6014 6.70691 17.4505 5.99915 17.1573C5.29138 16.8641 4.64828 16.4344 4.10658 15.8927C3.56488 15.351 3.13518 14.7079 2.84201 14.0002C2.54884 13.2924 2.39795 12.5338 2.39795 11.7677C2.39795 11.0016 2.54884 10.2431 2.84201 9.5353C3.13518 8.82753 3.56488 8.18443 4.10658 7.64273L8.82158 2.9294C9.60742 2.17041 10.6599 1.75043 11.7524 1.75992C12.8449 1.76942 13.89 2.20762 14.6625 2.98015C15.435 3.75269 15.8732 4.79774 15.8827 5.89023C15.8922 6.98271 15.4722 8.03522 14.7132 8.82106L9.99991 13.5369C9.76769 13.7691 9.49202 13.9532 9.18863 14.0788C8.88524 14.2045 8.56007 14.2691 8.2317 14.2691C7.90333 14.269 7.57818 14.2043 7.27482 14.0786C6.97146 13.9529 6.69583 13.7687 6.46366 13.5365C6.2315 13.3043 6.04734 13.0286 5.92172 12.7252C5.79609 12.4218 5.73145 12.0966 5.73149 11.7683C5.73153 11.4399 5.79624 11.1148 5.92194 10.8114C6.04764 10.508 6.23186 10.2324 6.46408 10.0002L11.1782 5.28606L12.3566 6.4644Z" fill="#424242"/>
</svg>
