<svg width="21" height="21" viewBox="0 0 21 21" fill="none" xmlns="http://www.w3.org/2000/svg">
<path d="M8.53809 20.5L8.05681 17.3421C7.68248 17.2193 7.28586 17.0395 6.86697 16.8026C6.44807 16.5658 6.08711 16.3158 5.78408 16.0526L2.78943 17.3947L0.650391 13.6842L3.35093 11.7105C3.31527 11.5351 3.28854 11.3377 3.27071 11.1184C3.25289 10.8991 3.24397 10.693 3.24397 10.5C3.24397 10.3246 3.25289 10.1272 3.27071 9.9079C3.28854 9.6886 3.31527 9.48246 3.35093 9.28947L0.650391 7.31579L2.78943 3.63158L5.75734 4.94737C6.0782 4.68421 6.44362 4.4386 6.8536 4.21053C7.26358 3.98246 7.65574 3.80702 8.03007 3.68421L8.53809 0.5H12.7627L13.244 3.68421C13.6361 3.82456 14.0327 4 14.4338 4.21053C14.8349 4.42105 15.1869 4.66667 15.49 4.94737L18.5381 3.63158L20.6504 7.31579L17.9231 9.26316C17.9588 9.47368 17.9855 9.68421 18.0033 9.89474C18.0212 10.1053 18.0301 10.307 18.0301 10.5C18.0301 10.6754 18.0212 10.8684 18.0033 11.0789C17.9855 11.2895 17.9588 11.5088 17.9231 11.7368L20.6504 13.6842L18.5114 17.3947L15.49 16.0526C15.1691 16.3158 14.8126 16.5658 14.4204 16.8026C14.0283 17.0395 13.6361 17.2105 13.244 17.3158L12.7627 20.5H8.53809ZM10.6237 13.4737C11.4614 13.4737 12.1745 13.1842 12.7627 12.6053C13.3509 12.0263 13.645 11.3246 13.645 10.5C13.645 9.67544 13.3509 8.97368 12.7627 8.39474C12.1745 7.81579 11.4614 7.52632 10.6237 7.52632C9.78586 7.52632 9.07285 7.81579 8.48462 8.39474C7.89638 8.97368 7.60226 9.67544 7.60226 10.5C7.60226 11.3246 7.89638 12.0263 8.48462 12.6053C9.07285 13.1842 9.78586 13.4737 10.6237 13.4737ZM10.6237 12.2632C10.1245 12.2632 9.70119 12.0921 9.3536 11.75C9.00601 11.4079 8.83221 10.9912 8.83221 10.5C8.83221 10.0088 9.00601 9.59211 9.3536 9.25C9.70119 8.9079 10.1245 8.73684 10.6237 8.73684C11.1228 8.73684 11.5461 8.9079 11.8937 9.25C12.2413 9.59211 12.4151 10.0088 12.4151 10.5C12.4151 10.9912 12.2413 11.4079 11.8937 11.75C11.5461 12.0921 11.1228 12.2632 10.6237 12.2632ZM9.50066 19.3158H11.7734L12.1745 16.3684C12.7449 16.2281 13.2752 16.0175 13.7654 15.7368C14.2556 15.4561 14.7235 15.1053 15.1691 14.6842L17.9499 15.8684L19.0194 14L16.5595 12.2105C16.6308 11.8947 16.6887 11.6009 16.7333 11.3289C16.7778 11.057 16.8001 10.7807 16.8001 10.5C16.8001 10.2018 16.7823 9.92105 16.7466 9.6579C16.711 9.39474 16.6486 9.11403 16.5595 8.81579L19.0461 7L17.9766 5.13158L15.1691 6.31579C14.7948 5.89474 14.3402 5.52632 13.8055 5.21053C13.2707 4.89474 12.7181 4.70175 12.1477 4.63158L11.8001 1.68421H9.50066L9.15306 4.63158C8.56483 4.73684 8.02116 4.92982 7.52205 5.21053C7.02294 5.49123 6.55948 5.85965 6.13167 6.31579L3.32419 5.13158L2.25467 7L4.71456 8.78947C4.64326 9.05263 4.58533 9.32895 4.54076 9.61842C4.4962 9.9079 4.47392 10.2018 4.47392 10.5C4.47392 10.7982 4.4962 11.0877 4.54076 11.3684C4.58533 11.6491 4.64326 11.9298 4.71456 12.2105L2.25467 14L3.32419 15.8684L6.10494 14.6842C6.53274 15.1228 7.00066 15.4781 7.50868 15.75C8.0167 16.0219 8.56483 16.2281 9.15306 16.3684L9.50066 19.3158Z" fill="white" fill-opacity="0.6"/>
</svg>
