<svg width="20" height="20" viewBox="0 0 20 20" fill="none" xmlns="http://www.w3.org/2000/svg">
<path d="M14.2508 12.5777C13.8325 12.5798 13.42 12.6758 13.0437 12.8586C12.6674 13.0415 12.3369 13.3064 12.0767 13.634L7.9912 11.0799C8.1401 10.5993 8.1401 10.0849 7.9912 9.60438L12.0767 7.05022C12.4914 7.56369 13.0744 7.91382 13.7225 8.03858C14.3706 8.16334 15.042 8.05469 15.6176 7.73187C16.1933 7.40905 16.6361 6.89289 16.8677 6.27484C17.0992 5.65679 17.1045 4.97673 16.8826 4.35514C16.6608 3.73354 16.2261 3.21053 15.6555 2.87875C15.085 2.54698 14.4154 2.42785 13.7655 2.54247C13.1155 2.65709 12.5271 2.99807 12.1044 3.50499C11.6818 4.01192 11.4522 4.65207 11.4564 5.31206C11.459 5.56199 11.4966 5.81031 11.5681 6.0498L7.48261 8.60396C7.12192 8.1499 6.62891 7.81929 6.07192 7.65797C5.51494 7.49664 4.92156 7.51258 4.37403 7.70358C3.82651 7.89458 3.35197 8.25118 3.01618 8.72395C2.6804 9.19672 2.5 9.76224 2.5 10.3421C2.5 10.922 2.6804 11.4875 3.01618 11.9603C3.35197 12.4331 3.82651 12.7897 4.37403 12.9807C4.92156 13.1717 5.51494 13.1876 6.07192 13.0263C6.62891 12.865 7.12192 12.5343 7.48261 12.0803L11.5681 14.6344C11.4966 14.8739 11.459 15.1223 11.4564 15.3722C11.4564 15.9249 11.6202 16.4652 11.9273 16.9247C12.2344 17.3843 12.6708 17.7424 13.1814 17.9539C13.6921 18.1655 14.2539 18.2208 14.796 18.113C15.3381 18.0051 15.836 17.739 16.2268 17.3482C16.6176 16.9574 16.8838 16.4594 16.9916 15.9174C17.0994 15.3753 17.0441 14.8134 16.8326 14.3028C16.6211 13.7922 16.2629 13.3557 15.8034 13.0487C15.3438 12.7416 14.8035 12.5777 14.2508 12.5777ZM14.2508 3.63537C14.5825 3.63537 14.9066 3.73371 15.1824 3.91794C15.4581 4.10218 15.673 4.36404 15.7999 4.67042C15.9268 4.97679 15.96 5.31392 15.8953 5.63916C15.8306 5.96441 15.6709 6.26317 15.4364 6.49766C15.2019 6.73215 14.9032 6.89183 14.5779 6.95653C14.2527 7.02122 13.9156 6.98802 13.6092 6.86112C13.3028 6.73421 13.041 6.51931 12.8567 6.24358C12.6725 5.96785 12.5741 5.64368 12.5741 5.31206C12.5741 4.86737 12.7508 4.4409 13.0652 4.12646C13.3797 3.81202 13.8061 3.63537 14.2508 3.63537ZM5.3085 12.0188C4.97688 12.0188 4.65271 11.9205 4.37698 11.7362C4.10125 11.552 3.88635 11.2901 3.75944 10.9838C3.63254 10.6774 3.59933 10.3403 3.66403 10.015C3.72872 9.68977 3.88841 9.39101 4.1229 9.15652C4.35739 8.92204 4.65615 8.76235 4.98139 8.69765C5.30664 8.63296 5.64377 8.66616 5.95014 8.79306C6.25652 8.91997 6.51838 9.13487 6.70261 9.4106C6.88685 9.68633 6.98519 10.0105 6.98519 10.3421C6.98519 10.7868 6.80854 11.2133 6.4941 11.5277C6.17966 11.8422 5.75319 12.0188 5.3085 12.0188ZM14.2508 17.0489C13.9192 17.0489 13.595 16.9505 13.3193 16.7663C13.0436 16.5821 12.8287 16.3202 12.7018 16.0138C12.5749 15.7075 12.5417 15.3703 12.6064 15.0451C12.6711 14.7198 12.8307 14.4211 13.0652 14.1866C13.2997 13.9521 13.5985 13.7924 13.9237 13.7277C14.249 13.663 14.5861 13.6962 14.8925 13.8231C15.1988 13.95 15.4607 14.1649 15.6449 14.4407C15.8292 14.7164 15.9275 15.0406 15.9275 15.3722C15.9275 15.8169 15.7509 16.2433 15.4364 16.5578C15.122 16.8722 14.6955 17.0489 14.2508 17.0489Z" fill="white"/>
</svg>
