<svg width="20" height="20" viewBox="0 0 20 20" fill="none" xmlns="http://www.w3.org/2000/svg">
<path d="M9.99984 18.3327C5.39734 18.3327 1.6665 14.6018 1.6665 9.99935C1.6665 5.39685 5.39734 1.66602 9.99984 1.66602C14.6023 1.66602 18.3332 5.39685 18.3332 9.99935C18.3332 14.6018 14.6023 18.3327 9.99984 18.3327ZM9.99984 16.666C11.7679 16.666 13.4636 15.9636 14.7139 14.7134C15.9641 13.4632 16.6665 11.7675 16.6665 9.99935C16.6665 8.23124 15.9641 6.53555 14.7139 5.2853C13.4636 4.03506 11.7679 3.33268 9.99984 3.33268C8.23173 3.33268 6.53603 4.03506 5.28579 5.2853C4.03555 6.53555 3.33317 8.23124 3.33317 9.99935C3.33317 11.7675 4.03555 13.4632 5.28579 14.7134C6.53603 15.9636 8.23173 16.666 9.99984 16.666ZM5.83317 10.8327H7.49984C7.49984 11.4957 7.76323 12.1316 8.23207 12.6004C8.70091 13.0693 9.3368 13.3327 9.99984 13.3327C10.6629 13.3327 11.2988 13.0693 11.7676 12.6004C12.2364 12.1316 12.4998 11.4957 12.4998 10.8327H14.1665C14.1665 11.9378 13.7275 12.9976 12.9461 13.779C12.1647 14.5604 11.1049 14.9993 9.99984 14.9993C8.89477 14.9993 7.83496 14.5604 7.05356 13.779C6.27216 12.9976 5.83317 11.9378 5.83317 10.8327ZM6.6665 9.16602C6.33498 9.16602 6.01704 9.03432 5.78262 8.7999C5.5482 8.56548 5.4165 8.24754 5.4165 7.91602C5.4165 7.5845 5.5482 7.26655 5.78262 7.03213C6.01704 6.79771 6.33498 6.66602 6.6665 6.66602C6.99802 6.66602 7.31597 6.79771 7.55039 7.03213C7.78481 7.26655 7.9165 7.5845 7.9165 7.91602C7.9165 8.24754 7.78481 8.56548 7.55039 8.7999C7.31597 9.03432 6.99802 9.16602 6.6665 9.16602ZM13.3332 9.16602C13.0016 9.16602 12.6837 9.03432 12.4493 8.7999C12.2149 8.56548 12.0832 8.24754 12.0832 7.91602C12.0832 7.5845 12.2149 7.26655 12.4493 7.03213C12.6837 6.79771 13.0016 6.66602 13.3332 6.66602C13.6647 6.66602 13.9826 6.79771 14.2171 7.03213C14.4515 7.26655 14.5832 7.5845 14.5832 7.91602C14.5832 8.24754 14.4515 8.56548 14.2171 8.7999C13.9826 9.03432 13.6647 9.16602 13.3332 9.16602Z" fill="#424242"/>
</svg>
