<svg width="331" height="332" viewBox="0 0 331 332" fill="none" xmlns="http://www.w3.org/2000/svg">
<path d="M139.159 190.963C151.077 203.42 170.79 203.864 183.24 191.954C199.848 176.066 200.411 149.777 184.525 133.17C168.639 116.564 142.338 115.973 125.742 131.849C104.988 151.703 104.27 184.567 124.137 205.334C144.003 226.101 176.867 226.84 197.621 206.986C222.521 183.166 223.383 143.715 199.548 118.799C175.713 93.8834 136.262 92.9965 111.362 116.816C82.304 144.614 81.2985 190.629 109.114 219.705C136.929 248.782 182.943 249.816 212.001 222.018C245.205 190.254 246.354 137.653 214.571 104.428C182.787 71.2029 130.186 70.0204 96.9817 101.784C59.6196 137.526 58.339 196.679 94.0914 234.053C129.844 271.426 189.008 272.756 226.358 237.026C267.866 197.318 269.302 131.59 229.57 90.0559C189.837 48.5218 124.109 47.0442 82.6013 86.7519C36.9475 130.426 35.3672 202.741 79.0685 248.424C122.77 294.107 195.084 295.732 240.738 252.058C290.55 204.407 292.274 125.528 244.592 75.6846" stroke="url(#paint0_linear_427_3778)" stroke-width="1.76239" stroke-miterlimit="10"/>
<path d="M182.015 152.352C193.453 164.309 192.985 183.319 180.97 194.814C168.955 206.308 149.942 205.933 138.503 193.976C127.065 182.019 127.533 163.009 139.549 151.514C151.564 140.02 170.577 140.395 182.015 152.352ZM153.437 179.69C157.024 183.44 162.986 183.557 166.754 179.953C170.522 176.349 170.668 170.387 167.082 166.638C163.495 162.888 157.533 162.771 153.765 166.375C149.997 169.979 149.85 175.941 153.437 179.69Z" fill="url(#paint1_linear_427_3778)"/>
<defs>
<linearGradient id="paint0_linear_427_3778" x1="251.783" y1="83.2008" x2="79.0685" y2="248.424" gradientUnits="userSpaceOnUse">
<stop stop-color="#7A66AC"/>
<stop offset="1" stop-color="#A84B66"/>
</linearGradient>
<linearGradient id="paint1_linear_427_3778" x1="139.549" y1="151.514" x2="180.97" y2="194.814" gradientUnits="userSpaceOnUse">
<stop stop-color="#7366AE"/>
<stop offset="1" stop-color="#AE6088"/>
</linearGradient>
</defs>
</svg>
