<svg width="26" height="26" viewBox="0 0 26 26" fill="none" xmlns="http://www.w3.org/2000/svg">
<path d="M16.3753 3.59717C16.3753 5.5839 14.7649 7.19435 12.7781 7.19435C10.7914 7.19435 9.18097 5.58395 9.18097 3.59717C9.18097 1.61045 10.7914 0 12.7781 0C14.7649 0 16.3753 1.6104 16.3753 3.59717Z" fill="#434343"/>
<path d="M5.8564 8.24252C5.8564 9.85969 4.54545 11.1707 2.92823 11.1707C1.31106 11.1707 6.10352e-05 9.85974 6.10352e-05 8.24252C6.10352e-05 6.62557 1.31101 5.31458 2.92823 5.31458C4.5454 5.31458 5.8564 6.62552 5.8564 8.24252Z" fill="#434343"/>
<path d="M10.9782 25.0066C9.1524 23.9059 4.16011 20.5537 1.74065 15.515C0.752506 13.4576 1.48649 12.8245 2.44183 11.7236C3.10737 11.9148 3.84318 11.8726 4.51607 11.5493C5.1896 11.2261 5.68251 10.6784 5.94938 10.0396C6.26052 10.0273 6.5485 10.0098 6.81905 10.0096C6.77908 10.3175 6.7592 10.6533 6.7592 11.0216C6.7592 14.0344 7.46058 17.273 8.84352 20.6485C9.54758 22.3663 10.3244 23.8572 10.9801 24.9959C10.9791 24.9989 10.9783 25.003 10.9781 25.0063L10.9782 25.0066Z" fill="#434343"/>
<path d="M7.59473 11.0214C7.59473 8.21727 8.74417 7.90632 10.3874 7.19507C11.023 7.76076 11.8599 8.10513 12.7781 8.10513C13.6964 8.10513 14.5328 7.76099 15.1688 7.19507C16.812 7.90653 17.9615 8.21763 17.9615 11.0214C17.9615 17.8883 14.2155 24.2558 12.7781 26.4459C11.3409 24.2557 7.59473 17.8889 7.59473 11.0214Z" fill="#434343"/>
<path d="M23.8153 15.5156C21.3961 20.5542 16.4043 23.9063 14.5778 25.0071C14.5776 25.0032 14.577 24.9998 14.5759 24.9961C15.2308 23.8575 16.0084 22.3666 16.7125 20.6487C18.0956 17.2733 18.7968 14.0347 18.7968 11.0217C18.7968 10.6532 18.7765 10.3177 18.737 10.0098C19.0075 10.0098 19.2953 10.0275 19.6066 10.0398C19.8735 10.6789 20.3664 11.2263 21.0399 11.5495C21.7135 11.8728 22.4487 11.915 23.1142 11.7237C24.0693 12.825 24.8033 13.4585 23.8151 15.5159L23.8153 15.5156Z" fill="#434343"/>
<path d="M25.5557 8.24252C25.5557 9.85969 24.2448 11.1707 22.6278 11.1707C21.0106 11.1707 19.6996 9.85974 19.6996 8.24252C19.6996 6.62557 21.0105 5.31458 22.6278 5.31458C24.2447 5.31458 25.5557 6.62552 25.5557 8.24252Z" fill="#434343"/>
</svg>
