<svg width="26" height="26" viewBox="0 0 26 26" fill="none" xmlns="http://www.w3.org/2000/svg">
<path d="M16.375 3.59717C16.375 5.5839 14.7646 7.19435 12.7778 7.19435C10.7911 7.19435 9.18066 5.58395 9.18066 3.59717C9.18066 1.61045 10.7911 0 12.7778 0C14.7646 0 16.375 1.6104 16.375 3.59717Z" fill="#D70237"/>
<path d="M5.85634 8.24252C5.85634 9.85969 4.54539 11.1707 2.92817 11.1707C1.311 11.1707 0 9.85974 0 8.24252C0 6.62557 1.31095 5.31458 2.92817 5.31458C4.54534 5.31458 5.85634 6.62552 5.85634 8.24252Z" fill="#D70237"/>
<path d="M10.9783 25.0066C9.15246 23.9059 4.16017 20.5537 1.74071 15.515C0.752567 13.4576 1.48655 12.8245 2.44189 11.7236C3.10743 11.9148 3.84324 11.8726 4.51613 11.5493C5.18966 11.2261 5.68258 10.6784 5.94945 10.0396C6.26059 10.0273 6.54856 10.0098 6.81911 10.0096C6.77914 10.3175 6.75926 10.6533 6.75926 11.0216C6.75926 14.0344 7.46064 17.273 8.84358 20.6485C9.54764 22.3663 10.3245 23.8572 10.9802 24.9959C10.9791 24.9989 10.9783 25.003 10.9781 25.0063L10.9783 25.0066Z" fill="#D70237"/>
<path d="M7.59473 11.0214C7.59473 8.21727 8.74417 7.90632 10.3874 7.19507C11.023 7.76076 11.8599 8.10513 12.7781 8.10513C13.6964 8.10513 14.5328 7.76099 15.1688 7.19507C16.812 7.90653 17.9615 8.21763 17.9615 11.0214C17.9615 17.8883 14.2155 24.2558 12.7781 26.4459C11.3409 24.2557 7.59473 17.8889 7.59473 11.0214Z" fill="#D70237"/>
<path d="M23.8151 15.5156C21.3959 20.5542 16.4041 23.9063 14.5775 25.0071C14.5773 25.0032 14.5767 24.9998 14.5757 24.9961C15.2305 23.8575 16.0082 22.3666 16.7123 20.6487C18.0953 17.2733 18.7966 14.0347 18.7966 11.0217C18.7966 10.6532 18.7763 10.3177 18.7367 10.0098C19.0073 10.0098 19.2951 10.0275 19.6064 10.0398C19.8732 10.6789 20.3662 11.2263 21.0397 11.5495C21.7132 11.8728 22.4484 11.915 23.1139 11.7237C24.0691 12.825 24.803 13.4585 23.8149 15.5159L23.8151 15.5156Z" fill="#D70237"/>
<path d="M25.5558 8.24252C25.5558 9.85969 24.2449 11.1707 22.6279 11.1707C21.0107 11.1707 19.6997 9.85974 19.6997 8.24252C19.6997 6.62557 21.0107 5.31458 22.6279 5.31458C24.2448 5.31458 25.5558 6.62552 25.5558 8.24252Z" fill="#D70237"/>
</svg>
