<svg width="26" height="25" viewBox="0 0 26 25" fill="none" xmlns="http://www.w3.org/2000/svg">
<path d="M0 21.5194H7.5499V24.2649H0V21.5194Z" fill="#434343"/>
<path d="M0 17.4015H7.5499V20.147H0V17.4015Z" fill="#434343"/>
<path d="M0 13.2834H7.5499V16.0289H0V13.2834Z" fill="#434343"/>
<path d="M0 9.16486H7.5499V11.9103H0V9.16486Z" fill="#434343"/>
<path d="M0 5.04688H7.5499V7.79236H0V5.04688Z" fill="#434343"/>
<path d="M0 0.928528H7.5499V3.67402H0V0.928528Z" fill="#434343"/>
<path d="M8.92316 21.5194H16.4731V24.2649H8.92316V21.5194Z" fill="#434343"/>
<path d="M8.92316 17.4015H16.4731V20.147H8.92316V17.4015Z" fill="#434343"/>
<path d="M8.92316 13.2834H16.4731V16.0289H8.92316V13.2834Z" fill="#434343"/>
<path d="M17.8454 21.5194H25.3953V24.2649H17.8454V21.5194Z" fill="#434343"/>
<path d="M17.8454 17.4015H25.3953V20.147H17.8454V17.4015Z" fill="#434343"/>
<path d="M17.8454 13.2834H25.3953V16.0289H17.8454V13.2834Z" fill="#434343"/>
<path d="M17.8454 9.16486H25.3953V11.9103H17.8454V9.16486Z" fill="#434343"/>
<path d="M17.8454 5.04688H25.3953V7.79236H17.8454V5.04688Z" fill="#434343"/>
</svg>
