<svg width="26" height="25" viewBox="0 0 26 25" fill="none" xmlns="http://www.w3.org/2000/svg">
<path d="M0 21.5195H7.5499V24.2651H0V21.5195Z" fill="#D70237"/>
<path d="M0 17.4015H7.5499V20.147H0V17.4015Z" fill="#D70237"/>
<path d="M0 13.2834H7.5499V16.0289H0V13.2834Z" fill="#D70237"/>
<path d="M0 9.16492H7.5499V11.9104H0V9.16492Z" fill="#D70237"/>
<path d="M0 5.04688H7.5499V7.79236H0V5.04688Z" fill="#D70237"/>
<path d="M0 0.928589H7.5499V3.67408H0V0.928589Z" fill="#D70237"/>
<path d="M8.92334 21.5195H16.4732V24.2651H8.92334V21.5195Z" fill="#D70237"/>
<path d="M8.92334 17.4015H16.4732V20.147H8.92334V17.4015Z" fill="#D70237"/>
<path d="M8.92334 13.2834H16.4732V16.0289H8.92334V13.2834Z" fill="#D70237"/>
<path d="M17.8452 21.5195H25.3951V24.2651H17.8452V21.5195Z" fill="#D70237"/>
<path d="M17.8452 17.4015H25.3951V20.147H17.8452V17.4015Z" fill="#D70237"/>
<path d="M17.8452 13.2834H25.3951V16.0289H17.8452V13.2834Z" fill="#D70237"/>
<path d="M17.8452 9.16492H25.3951V11.9104H17.8452V9.16492Z" fill="#D70237"/>
<path d="M17.8452 5.04688H25.3951V7.79236H17.8452V5.04688Z" fill="#D70237"/>
</svg>
