<svg width="33" height="33" viewBox="0 0 33 33" fill="none" xmlns="http://www.w3.org/2000/svg">
<path fill-rule="evenodd" clip-rule="evenodd" d="M1.12407 5.63063C0 7.8375 0 10.725 0 16.5C0 22.275 0 25.1625 1.12407 27.3694C2.11407 29.3082 3.69187 30.8859 5.63063 31.8759C7.8375 33 10.725 33 16.5 33C22.275 33 25.1625 33 27.3694 31.8759C29.3082 30.8859 30.8859 29.3082 31.8759 27.3694C33 25.1625 33 22.275 33 16.5C33 10.725 33 7.8375 31.8759 5.63063C30.8859 3.69187 29.3082 2.11407 27.3694 1.12407C25.1625 0 22.275 0 16.5 0C10.725 0 7.8375 0 5.63063 1.12407C3.69187 2.11407 2.11407 3.69187 1.12407 5.63063ZM24.7345 8.89967C25.0233 8.89967 25.2966 9.01829 25.4977 9.21942C25.6988 9.42567 25.8123 9.70408 25.807 9.98762C25.7555 13.0608 25.6369 15.412 25.4152 17.2734C25.1986 19.1349 24.8738 20.5167 24.384 21.6357C24.054 22.3833 23.6466 23.002 23.167 23.528C22.5225 24.2241 21.7852 24.7294 20.9808 25.209C20.6369 25.4146 20.2794 25.6176 19.9043 25.8307C19.104 26.2851 18.2242 26.7848 17.227 27.4519C16.8661 27.6942 16.3969 27.6942 16.036 27.4519C15.0236 26.777 14.1321 26.2711 13.3245 25.813C13.1449 25.7112 12.9695 25.6116 12.7978 25.5132C11.8543 24.9666 11.0035 24.4458 10.261 23.693C9.766 23.198 9.33805 22.5947 8.99771 21.878C8.53364 20.9189 8.2191 19.7588 7.98708 18.2583C7.67769 16.2525 7.52301 13.628 7.46629 9.98762C7.46114 9.70408 7.56942 9.42567 7.77051 9.21942C7.9716 9.01829 8.25004 8.89967 8.53879 8.89967H8.98225C10.3486 8.90488 13.365 8.77079 15.9741 6.73923C16.3608 6.44016 16.9023 6.44016 17.289 6.73923C19.898 8.77079 22.9144 8.90488 24.286 8.89967H24.7345ZM22.3369 20.9499C22.672 20.2589 22.9505 19.305 23.1619 17.9334C23.4145 16.2938 23.5693 14.0662 23.6415 11.0344C22.0327 10.988 19.269 10.6786 16.6341 8.90488C13.9993 10.6734 11.2355 10.9828 9.63192 11.0344C9.68863 13.5403 9.80204 15.4894 9.9825 17.0208C10.1888 18.7636 10.4827 19.9444 10.8488 20.7745C11.0911 21.3263 11.3593 21.7233 11.679 22.0739C12.1069 22.5432 12.6483 22.9299 13.3857 23.3733C13.6915 23.5568 14.0287 23.7477 14.3958 23.9555C15.0498 24.3256 15.7986 24.7494 16.6341 25.2811C17.4542 24.7581 18.1922 24.3386 18.8386 23.9712C19.0334 23.8605 19.2199 23.7544 19.3978 23.6517C20.3053 23.1309 20.9757 22.6978 21.4758 22.1925C21.811 21.847 22.0843 21.4707 22.3369 20.9499Z" fill="#3375BB"/>
</svg>
