<svg width="64" height="64" viewBox="0 0 64 64" fill="none" xmlns="http://www.w3.org/2000/svg">
<path d="M42.6666 42.6667L31.9999 32L21.3333 42.6667" stroke="#D5D4D8" stroke-width="5" stroke-linecap="round" stroke-linejoin="round"/>
<path d="M32 32V56" stroke="#D5D4D8" stroke-width="5" stroke-linecap="round" stroke-linejoin="round"/>
<path d="M54.3732 49.0398C56.9741 47.6218 59.0288 45.3781 60.2129 42.6628C61.397 39.9474 61.6431 36.9151 60.9124 34.0443C60.1818 31.1735 58.5159 28.6278 56.1777 26.809C53.8395 24.9901 50.9622 24.0017 47.9999 23.9998H44.6399C43.8327 20.8778 42.3283 17.9794 40.2398 15.5224C38.1512 13.0655 35.5328 11.1141 32.5815 9.81475C29.6302 8.51543 26.4227 7.90208 23.2002 8.02081C19.9777 8.13954 16.8241 8.98726 13.9764 10.5002C11.1287 12.0132 8.66099 14.1521 6.75889 16.756C4.85678 19.36 3.56973 22.3612 2.99451 25.5342C2.41928 28.7071 2.57084 31.9692 3.4378 35.0752C4.30475 38.1811 5.86454 41.0501 7.9999 43.4665" stroke="#D5D4D8" stroke-width="5" stroke-linecap="round" stroke-linejoin="round"/>
<path d="M42.6666 42.6667L31.9999 32L21.3333 42.6667" stroke="#D5D4D8" stroke-width="5" stroke-linecap="round" stroke-linejoin="round"/>
</svg>
