<svg width="18" height="18" viewBox="0 0 18 18" fill="none" xmlns="http://www.w3.org/2000/svg">
<path d="M1.5 7.5C1.5 7.10218 1.65804 6.72064 1.93934 6.43934C2.22064 6.15804 2.60218 6 3 6H15C15.3978 6 15.7794 6.15804 16.0607 6.43934C16.342 6.72064 16.5 7.10218 16.5 7.5V12.75C16.5 13.1478 16.342 13.5294 16.0607 13.8107C15.7794 14.092 15.3978 14.25 15 14.25H12.099C11.84 14.25 11.5854 14.1829 11.3599 14.0553C11.1345 13.9277 10.946 13.7439 10.8127 13.5217L9.64275 11.5717C9.57607 11.4609 9.48184 11.3691 9.36921 11.3054C9.25658 11.2417 9.12939 11.2082 9 11.2082C8.87061 11.2082 8.74342 11.2417 8.63079 11.3054C8.51816 11.3691 8.42393 11.4609 8.35725 11.5717L7.18725 13.5217C7.05398 13.7439 6.86546 13.9277 6.64005 14.0553C6.41464 14.1829 6.16003 14.25 5.901 14.25H3C2.60218 14.25 2.22064 14.092 1.93934 13.8107C1.65804 13.5294 1.5 13.1478 1.5 12.75V7.5ZM2.85975 5.08575C3.13364 4.67497 3.50468 4.33813 3.93995 4.10512C4.37523 3.87211 4.86128 3.75013 5.355 3.75H12.6435C13.1373 3.75001 13.6236 3.87193 14.059 4.10495C14.4944 4.33796 14.8655 4.67486 15.1395 5.08575L15.75 6H2.25L2.85975 5.08575V5.08575Z" stroke="black" stroke-width="1.3" stroke-linecap="round" stroke-linejoin="round"/>
</svg>
