<svg width="18" height="18" viewBox="0 0 18 18" fill="none" xmlns="http://www.w3.org/2000/svg">
<path d="M4.5 2.8125C3.47175 2.8125 2.81025 3.41663 2.53125 3.97294C2.41875 4.19456 2.35969 4.4055 2.32031 4.58775C1.63463 4.80375 1.125 5.436 1.125 6.1875V13.5C1.125 14.4253 1.88719 15.1875 2.8125 15.1875H6.75C7.4925 15.1875 8.1675 14.7392 8.47294 14.0625H9.52706C9.67602 14.3956 9.91768 14.6787 10.2232 14.8782C10.5287 15.0777 10.8851 15.1851 11.25 15.1875H15.1875C16.1128 15.1875 16.875 14.4253 16.875 13.5V6.1875C16.875 5.436 16.3654 4.80375 15.6797 4.58775C15.6361 4.37441 15.5652 4.16757 15.4688 3.97237C15.1897 3.41944 14.5238 2.8125 13.5 2.8125H4.5ZM4.5 3.9375H13.5C14.1458 3.9375 14.3196 4.17488 14.4669 4.46513L14.4844 4.5H3.51562L3.53306 4.46456C3.67875 4.17712 3.8475 3.9375 4.5 3.9375ZM2.8125 5.625H15.1875C15.5059 5.625 15.75 5.86912 15.75 6.1875V13.5C15.75 13.8184 15.5059 14.0625 15.1875 14.0625H11.25C11.0991 14.0615 10.9518 14.0159 10.8267 13.9314C10.7016 13.847 10.6042 13.7274 10.5469 13.5878L9.96694 12.0409V12.0234L9.94894 12.006C9.86984 11.8144 9.73594 11.6504 9.56402 11.5347C9.39211 11.4189 9.18983 11.3565 8.98256 11.3552C8.77287 11.3558 8.56794 11.4177 8.39302 11.5333C8.21811 11.649 8.08085 11.8133 7.99819 12.006L7.98075 12.0234V12.0589L7.45312 13.5878C7.39554 13.7272 7.29814 13.8466 7.17309 13.9311C7.04804 14.0155 6.90088 14.0612 6.75 14.0625H2.8125C2.49413 14.0625 2.25 13.8184 2.25 13.5V6.1875C2.25 5.86912 2.49413 5.625 2.8125 5.625ZM5.625 7.3125C4.3875 7.3125 3.375 8.325 3.375 9.5625C3.375 10.8 4.3875 11.8125 5.625 11.8125C6.8625 11.8125 7.875 10.8 7.875 9.5625C7.875 8.325 6.8625 7.3125 5.625 7.3125ZM12.375 7.3125C11.1375 7.3125 10.125 8.325 10.125 9.5625C10.125 10.8 11.1375 11.8125 12.375 11.8125C13.6125 11.8125 14.625 10.8 14.625 9.5625C14.625 8.325 13.6125 7.3125 12.375 7.3125ZM5.625 8.4375C6.25331 8.4375 6.75 8.93419 6.75 9.5625C6.75 10.1908 6.25331 10.6875 5.625 10.6875C4.99669 10.6875 4.5 10.1908 4.5 9.5625C4.5 8.93419 4.99669 8.4375 5.625 8.4375ZM12.375 8.4375C13.0033 8.4375 13.5 8.93419 13.5 9.5625C13.5 10.1908 13.0033 10.6875 12.375 10.6875C11.7467 10.6875 11.25 10.1908 11.25 9.5625C11.25 8.93419 11.7467 8.4375 12.375 8.4375ZM8.98256 12.6214L9.10575 12.9375H8.87681L8.98256 12.6214Z" fill="black"/>
</svg>
