<svg width="17" height="17" viewBox="0 0 17 17" fill="none" xmlns="http://www.w3.org/2000/svg">
<path d="M12.25 10.1667H12.2583M1 2.66667V14.3333C1 15.2538 1.74619 16 2.66667 16H14.3333C15.2538 16 16 15.2538 16 14.3333V6C16 5.07953 15.2538 4.33333 14.3333 4.33333L2.66667 4.33333C1.74619 4.33333 1 3.58714 1 2.66667ZM1 2.66667C1 1.74619 1.74619 1 2.66667 1H12.6667M12.6667 10.1667C12.6667 10.3968 12.4801 10.5833 12.25 10.5833C12.0199 10.5833 11.8333 10.3968 11.8333 10.1667C11.8333 9.93655 12.0199 9.75 12.25 9.75C12.4801 9.75 12.6667 9.93655 12.6667 10.1667Z" stroke="black" stroke-width="2" stroke-linecap="round" stroke-linejoin="round"/>
</svg>
