<svg width="18" height="18" viewBox="0 0 18 18" fill="none" xmlns="http://www.w3.org/2000/svg">
<path fill-rule="evenodd" clip-rule="evenodd" d="M9.6752 1.12625C11.4752 1.23875 13.1627 2.13875 14.4002 3.37625C15.8627 4.95125 16.6502 6.86375 16.6502 9.11375C16.6502 10.9138 15.9752 12.6013 14.8502 14.0638C13.7252 15.4138 12.1502 16.4262 10.3502 16.7638C8.55019 17.1012 6.7502 16.8763 5.1752 15.9762C3.6002 15.0763 2.3627 13.7262 1.6877 12.0387C1.0127 10.3512 0.900195 8.43875 1.4627 6.75125C2.0252 4.95125 3.0377 3.48875 4.6127 2.47625C6.0752 1.46375 7.8752 1.01375 9.6752 1.12625ZM10.2377 15.6388C11.7002 15.3012 13.0502 14.5138 14.0627 13.2763C14.9627 12.0388 15.5252 10.5763 15.4127 9.00125C15.4127 7.20125 14.7377 5.40125 13.5002 4.16375C12.3752 3.03875 11.0252 2.36375 9.4502 2.25125C7.9877 2.13875 6.4127 2.47625 5.1752 3.37625C3.9377 4.27625 3.0377 5.51375 2.5877 7.08875C2.1377 8.55125 2.1377 10.1263 2.8127 11.5888C3.4877 13.0513 4.5002 14.1763 5.8502 14.9638C7.2002 15.7513 8.7752 15.9762 10.2377 15.6388Z" fill="white"/>
<path fill-rule="evenodd" clip-rule="evenodd" d="M6.75024 5.62816L7.62437 5.16016L12.6869 8.53516V9.47116L7.62437 12.8462L6.75024 12.3782V5.62816ZM7.87524 6.67891V11.3274L11.3616 9.00316L7.87524 6.67891Z" fill="white"/>
</svg>
